<?xml version="1.0" encoding="UTF-8" standalone="no"?>
<svg
    xmlns:svg="http://www.w3.org/2000/svg"
    xmlns="http://www.w3.org/2000/svg"
    viewBox="0 0 500 500">
  <rect
     style="fill: currentColor;stroke:currentColor;stroke-width:1;stroke-linecap:round;paint-order:stroke fill markers"
     id="rect835"
     width="460"
     height="460"
     x="20"
     y="20"
     rx="20" />
  <path
     fill="white"
     d="m 351.50001,264.89486 21.70328,-96.4154 c 1.56691,-6.96137 -3.67376,-13.59039 -10.74444,-13.59039 H 182.1307 l -4.20816,-20.77103 c -1.04859,-5.17722 -5.56067,-8.89525 -10.79493,-8.89525 h -47.07157 c -6.08544,0 -11.01852,4.98069 -11.01852,11.12486 v 7.41656 c 0,6.14417 4.93308,11.12486 11.01852,11.12486 h 32.08363 l 32.25121,159.19433 c -7.71572,4.48007 -12.91509,12.88027 -12.91509,22.5116 0,14.33624 11.51068,25.958 25.70988,25.958 14.19919,0 25.70987,-11.62176 25.70987,-25.958 0,-7.26545 -2.95984,-13.82958 -7.72397,-18.54141 h 96.24997 c -4.76368,4.71183 -7.72353,11.27596 -7.72353,18.54141 0,14.33624 11.51069,25.958 25.70989,25.958 14.19919,0 25.70987,-11.62176 25.70987,-25.958 0,-10.27751 -5.91695,-19.15884 -14.49807,-23.36451 l 2.53288,-11.25278 c 1.56692,-6.96138 -3.67375,-13.59041 -10.74444,-13.59041 H 209.17611 l -3.00484,-14.83313 h 134.58432 c 5.14472,0 9.60446,-3.59426 10.74442,-8.65931 z"
     style="stroke-width:1" />
</svg>
