<?xml version="1.0" encoding="UTF-8" standalone="no"?>
<svg
   
   xmlns:svg="http://www.w3.org/2000/svg"
   xmlns="http://www.w3.org/2000/svg"
   
   width="50"
   height="50"
   viewBox="0 0 50 50"
   version="1.1">
  <g>
    <path
       style="fill:currentColor;stroke:#000000;stroke-width:1.28857;stroke-linecap:butt;stroke-linejoin:miter;stroke-miterlimit:4;stroke-dasharray:none;stroke-opacity:1"
       d="m 2.2866128,8.1813601 8.7547022,10.4606079 -9.3669191,2.004427 7.7751553,6.639667 -6.4282779,4.885793 10.5301317,-1.19013 -2.632533,7.829795 7.040495,-4.635238 1.285655,11.83865 4.469185,-13.028779 5.81606,9.270477 1.714208,-10.33533 8.448593,7.015498 -2.816197,-10.084778 9.917915,0.814299 -7.836378,-5.261622 7.285382,-4.322048 -9.305697,-1.252767 3.795745,-6.451751 -9.244477,1.691236 0.612218,-10.9617139 -7.652712,11.8386509 -5.38751,-7.0154971 -2.265202,8.0177111 c 0,0 -14.8156506,-8.2056255 -14.5095422,-7.7671579 z" />
    <text
       xml:space="preserve"
       style="font-style:normal;font-weight:normal;font-size:9.18407px;line-height:1.25;font-family:sans-serif;fill:#000000;fill-opacity:0.8;stroke:none;stroke-width:0.688809"
       x="13.508038"
       y="26.299347"
       id="text855"><tspan
         id="tspan853"
         x="13.508038"
         y="26.299347"
         style="stroke-width:0.688809">New</tspan></text>
  </g>
</svg>
