<?xml version="1.0" encoding="UTF-8" standalone="no"?>
<svg 
    xmlns:svg="http://www.w3.org/2000/svg"
    xmlns="http://www.w3.org/2000/svg"
    viewBox="0 0 500 500">
    
    <style type="text/css"
           id="style2">
        .st0 {
            fill: white;
        }

        .st1 {
            opacity: 0.5;
        }

        .st2 {
            fill: url(#SVGID_1_);
            mix-blend-mode: multiply;
            opacity: 0.5;
        }

        .st3 {
            fill: white;
        }

        .st4 {
            opacity: 0.4;
            fill: white;
        }
    </style>

    <rect id="backdrop" style="fill: currentColor;stroke:currentColor;stroke-width:1;stroke-linecap:round;paint-order:stroke fill markers"
          x="0"
          y="0"
          width="500"
          height="500"
          rx="20" />

    <path class="st0"
          d="m 293.26983,101.06203 c 0,-5.858479 -3.51508,-12.888669 -11.71696,-17.575469 -16.40376,-9.37356 -42.1811,-9.37356 -58.58486,0 -8.20188,4.6868 -11.71698,10.54528 -11.71698,16.40378 0,0 0,0 0,0 l -1.17169,298.782749 c 0,5.85848 3.51508,12.88865 11.71696,17.57544 16.40378,9.37359 42.1811,9.37359 58.58488,0 8.20188,-4.68679 11.71697,-10.54527 11.71697,-16.40375 l 1.17168,-298.78275 c 0,0 0,0 0,0 z"
          id="path4"
          style="stroke-width:11.717" />
    <g class="st1"
       id="g13"
       transform="matrix(11.716972,0,0,11.716972,210.07934,76.456391)">
        <linearGradient id="SVGID_1_"
                        gradientUnits="userSpaceOnUse"
                        x1="1.027768e-05"
                        y1="15.7053"
                        x2="7.1072001"
                        y2="15.7053">
            <stop offset="0.3918"
                  style="stop-color:#D9D9D9"
                  id="stop6" />
            <stop offset="0.8449"
                  style="stop-color:currentColor"
                  id="stop8" />
        </linearGradient>
        <path class="st2"
              d="m 7.1,2.1 c 0,0.5 -0.3,1 -1,1.4 -1.4,0.8 -3.6,0.8 -5,0 C 0.3,3 0,2.4 0.1,1.9 c 0,0.1 0,0.1 0,0.2 0,0 0,0 0,0 L 0,27.5 c 0,0.5 0.3,1.1 1,1.5 1.4,0.8 3.6,0.8 5,0 0.7,-0.4 1,-0.9 1,-1.4 L 7.1,2.1 c 0,0 0,0 0,0 0,0 0,0 0,0 z"
              id="path11"
              style="fill:url(#SVGID_1_)" />
    </g>
    <path class="st3"
          d="m 211.25103,142.07142 c 0,5.85848 3.5151,12.88867 11.71698,17.57547 16.40376,9.37356 42.1811,9.37356 58.58486,0 8.20188,-4.6868 11.71696,-10.54528 11.71696,-16.40376 v 14.06036 c 0,5.85848 -3.51508,11.71696 -11.71696,16.40376 -16.40376,9.37358 -42.1811,9.37358 -58.58486,0 -8.20188,-4.6868 -11.71698,-10.54528 -11.71698,-17.57547 v -14.06036"
          id="path15"
          style="stroke-width:11.717" />
    <path class="st3"
          d="m 211.25103,115.12239 c 0,5.85848 3.5151,12.88867 11.71698,17.57546 16.40376,9.37357 42.1811,9.37357 58.58486,0 8.20188,-4.68679 11.71696,-10.54527 11.71696,-16.40377 v 14.06038 c 0,5.85848 -3.51508,11.71696 -11.71696,16.40375 -16.40376,9.37357 -42.1811,9.37357 -58.58486,0 -8.20188,-4.68679 -11.71698,-10.54527 -11.71698,-17.57546 v -14.06036"
          id="path17"
          style="stroke-width:11.717" />
    <path class="st4"
          d="m 281.55287,83.486561 c 16.40376,9.37359 16.40376,24.605659 0,33.979219 -16.40376,9.37357 -42.1811,9.37357 -58.58486,0 -16.40375,-9.37356 -16.40375,-24.605629 0,-33.979219 16.40376,-9.37356 42.1811,-9.37356 58.58486,0 z"
          id="path19"
          style="stroke-width:11.717" />


    <g id="backdrop" mask="url(#mask)">
    </g>
</svg>