<svg id="Layer_1" data-name="Layer 1" xmlns="http://www.w3.org/2000/svg" viewBox="0 0 564.8 91.7"><defs><style>.cls-1{fill:#f58220;}</style></defs><title>logo_dark</title><g id="svg_1" data-name="svg 1"><polygon id="svg_2" data-name="svg 2" points="130.3 67.9 117.2 40.8 117.2 67.9 105.5 67.9 105.5 23.9 120.9 23.9 133.5 50.4 133.5 23.9 145.1 23.9 145.1 67.9 130.3 67.9"/><path id="svg_3" data-name="svg 3" d="M196.9,48.1c-6.5,0-9.7,5.4-9.7,11.4,0,6.2,3.2,11.4,9.7,11.4s9.9-5.3,9.9-11.4c-.1-5.9-3.3-11.4-9.9-11.4m0,34.3c-14.1,0-22.4-10.1-22.4-22.8s8.2-22.8,22.4-22.8,22.5,10.3,22.5,22.8c0,12.7-8.4,22.8-22.5,22.8" transform="translate(-25 -13.7)"/><path id="svg_4" data-name="svg 4" d="M243.8,48.7h-8.3v9h8.3c2.6,0,4.8-1.6,4.8-4.6s-2.3-4.4-4.8-4.4m4.8,32.9-7.1-14.2h-6.1V81.6H223.2v-44H244c11.4,0,16.9,6.1,16.9,14.6A14.27,14.27,0,0,1,253.2,65l8.9,16.7H248.6Z" transform="translate(-25 -13.7)"/><path id="svg_5" data-name="svg 5" d="M285.3,48.7h-6.1V70.5h6.1c6.6,0,10-4.1,10-10.9s-3.5-10.9-10-10.9m0,32.9H266.9v-44h18.4c14.8,0,22.5,9.6,22.5,22s-7.8,22-22.5,22" transform="translate(-25 -13.7)"/><rect id="svg_6" data-name="svg 6" x="288.2" y="23.9" width="12.2" height="44.1"/><path id="svg_7" data-name="svg 7" d="M373.1,69.4c-4,8.1-10.6,13-20,13-12.8,0-21.9-9-21.9-23,0-13.8,9.1-22.7,21.9-22.7,7.7,0,15,3.2,19.8,11.9l-9.7,5.5c-2.5-4.8-5.7-6.7-9.8-6.7-6.1,0-9.7,5.4-9.7,12s3.6,12.2,9.7,12.2c4.6,0,7.3-2.6,9.4-7.2l10.3,5Z" transform="translate(-25 -13.7)"/><polygon id="svg_8" data-name="svg 8" points="354.8 67.9 354.8 23.9 360.8 23.9 360.8 62.2 384.7 62.2 384.7 67.9 354.8 67.9"/><rect id="svg_9" data-name="svg 9" x="391.4" y="23.9" width="6" height="44.1"/><path id="svg_10" data-name="svg 10" d="M436.3,59.6c0,10.3,5.6,17.2,14.6,17.2,7.7,0,13.3-4.8,13.9-12.4H450.9V59h19.6a25,25,0,0,1,.3,3.3c0,10.7-7.2,20.1-19.8,20.1s-21-9.7-21-22.9,8.3-22.8,20.8-22.8a19.59,19.59,0,0,1,16.9,8.9L462.9,49a13.37,13.37,0,0,0-12-6.6c-9.1,0-14.6,7-14.6,17.2" transform="translate(-25 -13.7)"/><polygon id="svg_11" data-name="svg 11" points="482.2 67.9 482.2 47.4 458.9 47.4 458.9 67.9 452.9 67.9 452.9 23.9 458.9 23.9 458.9 41.8 482.2 41.8 482.2 23.9 488.2 23.9 488.2 67.9 482.2 67.9"/><polygon id="svg_12" data-name="svg 12" points="514.8 29.5 514.8 67.9 508.8 67.9 508.8 29.5 494.2 29.5 494.2 23.9 529.4 23.9 529.4 29.5 514.8 29.5"/><path id="svg_13" data-name="svg 13" d="M589,44.6,584.4,48a14.15,14.15,0,0,0-11.8-5.7c-4.5,0-8.6,1.7-8.6,6.4s4.4,5.8,9.9,7.1c8.3,2,15.9,4.3,15.9,13.2,0,8.1-6.4,13.5-16.3,13.5-8.1,0-14.2-3.6-17.5-9.1l5-3.2a14.75,14.75,0,0,0,12.9,6.9c5.8,0,9.7-2.8,9.7-7.5,0-5.2-4.9-6.2-11.5-7.7-7.3-1.6-14.2-4.1-14.2-12.4,0-7.9,6.4-12.5,15-12.5A18.77,18.77,0,0,1,589,44.6" transform="translate(-25 -13.7)"/><path id="svg_14" data-name="svg 14" class="cls-1" d="M82.1,20.8c-20,8.1-33.2,22.4-33.2,38.8S62.2,90.3,82.1,98.4c2.1,2.3,4.3,4.5,6.6,6.7C53,102.9,25,83.4,25,59.6S53,16.3,88.7,14.1c-2.3,2.2-4.5,4.4-6.6,6.7m11,8.2c7.9,9,12.4,19.4,12.4,30.6S101,81.2,93.1,90.2l-.6-1.8a62,62,0,0,0,0-57.6l.6-1.8m1.6,76.3C81.1,92,71.2,76.3,71.2,59.6s9.9-32.4,23.5-45.8l2.2-.1C88.2,27.6,84.2,43.1,84.2,59.6s4,32,12.6,45.8Z" transform="translate(-25 -13.7)"/></g></svg>