<svg xmlns="http://www.w3.org/2000/svg" width="360" height="77" viewBox="0 0 3600 771">
  <path fill="#009D57" d="M1065 536c-45 129-77 153-248 152-156-1-188-30-142-152l65-191c42-117 109-134 235-134 185 1 185 43 154 134l-64 191zM962 362c8-26 24-57-17-57-39 0-41 31-49 57l-56 172c-8 24-21 57 12 60 40 3 40-27 54-60l56-172zm512 175c-45 129-77 152-248 152-157-1-189-30-142-152l64-191c42-117 110-134 236-134 184 1 184 43 154 134l-64 191zm-104-175c8-25 24-56-16-56s-41 31-50 57l-55 172c-8 24-22 57 12 60 39 3 39-27 53-60l56-172zm71 319l153-457 137 1c52 0 114 1 154 22 47 25 41 70 26 114l-61 203c-17 51-40 88-97 107-44 16-91 11-134 11l-178-1zm178-80c72 5 73-25 91-88l48-154c16-56 9-59-45-60l-94 302zm420-79l-12 28c-7 27-9 41 18 41 32 0 32-16 42-39 17-39-13-47-42-64-35-19-71-23-87-46-15-24-33-68-19-110 29-87 66-127 260-126 121 0 151 82 106 168h-146c10-27 28-53-8-64-20-6-42 2-51 24-10 28-2 27 20 42 41 26 79 42 102 65 22 23 41 53 28 113-19 95-71 133-252 132-128 0-171-54-144-115l21-49 164 1zm1334 9c-45 128-77 152-248 152-157-1-188-30-142-152l64-192c43-117 110-133 236-133 184 1 184 43 154 133l-64 192zm-104-175c8-26 24-56-16-56s-41 30-49 56l-56 173c-8 24-21 57 12 60 40 3 39-28 53-60l56-173zM54 678l29-82 50 1c21 0 37-14 46-37l134-376c8-23 2-37-19-37h-51l29-81 546 3-84 234h-76c47-133 9-153-96-154l-82-1-63 177h26c47 0 73-24 87-63l13-35h68l-99 279-69-1 13-36c14-39 5-63-42-63h-25l-56 155c-8 23-2 37 19 37h51l-29 81-319-1zM3056 48l74 1-90 251-76-1c34-95 17-175-76-176-91 0-167 73-225 238-52 145-54 239 61 239 86 1 161-79 192-165l76 1c-63 169-182 251-334 250-170-1-251-111-173-326 69-196 235-324 394-323 41 1 120 24 142 63l35-52z"/>
  <path fill="#EF3E42" d="M47 707h3268v29H47z"/>
  <path d="M3488 676a58 58 0 0 1-60-61 59 59 0 0 1 60-60c32 0 59 24 59 60s-27 61-59 61zm0-111c-26 0-47 21-47 50 0 28 18 50 47 50 26 1 46-20 46-50 0-29-20-50-46-50zm-12 85h-11v-67h25c16 0 25 6 25 19 0 12-8 17-18 19l19 29h-12l-18-29h-10v29zm12-38c8 0 16-1 16-11 0-8-8-9-15-9h-13v20h12z"/>
</svg>
