<?xml version="1.0" encoding="UTF-8" standalone="no"?>
<svg
   xmlns:dc="http://purl.org/dc/elements/1.1/"
   xmlns:cc="http://creativecommons.org/ns#"
   xmlns:rdf="http://www.w3.org/1999/02/22-rdf-syntax-ns#"
   xmlns:svg="http://www.w3.org/2000/svg"
   xmlns="http://www.w3.org/2000/svg"
   viewBox="0 0 346.28 125.16"
   height="125.16"
   width="346.28"
   xml:space="preserve"
   id="svg2"
   version="1.1"><metadata
     id="metadata8"><rdf:RDF><cc:Work
         rdf:about=""><dc:format>image/svg+xml</dc:format><dc:type
           rdf:resource="http://purl.org/dc/dcmitype/StillImage" /></cc:Work></rdf:RDF></metadata><defs
     id="defs6" /><g
     transform="matrix(1.3333333,0,0,-1.3333333,0,125.16)"
     id="g10"><g
       transform="scale(0.1)"
       id="g12"><path
         id="path14"
         style="fill:#ee2722;fill-opacity:1;fill-rule:nonzero;stroke:none"
         d="m 132.5,897.699 c 46.992,0 86.961,-30.636 91.027,-69.824 l 0.332,2.086 V 113.02 l 0.086,-0.684 c 0,-38.129 -40.98,-69.1016 -91.445,-69.1016 -50.332,0 -91.3633,30.9726 -91.5352,68.8676 v 717.859 l 0.4415,-2.086 c 4.0039,39.188 44.1054,69.824 91.0937,69.824 M 0.644531,832.094 0.570313,830.98 0,829.961 V 112.102 C 0.105469,51.5156 59.5,2.23438 132.5,2.23438 c 72.953,0 132.445,49.35942 132.445,110.10162 0,0 0,0.605 0,0.992 V 830.98 l -0.648,1.114 c -6.293,60.828 -62.953,106.64 -131.797,106.64 -68.9102,0 -125.64453,-45.812 -131.855469,-106.64" /><path
         id="path16"
         style="fill:#ee2722;fill-opacity:1;fill-rule:nonzero;stroke:none"
         d="m 984.141,708.109 c 0,0 0.105,0 0.203,0 -0.098,0 -0.098,0 -0.129,0 z m -369.789,-590.25 0.593,556.371 c 0,5.055 0,20.344 -15.918,28.215 -6.765,3.5 -16.324,5.051 -19.992,5.532 l -1.316,0.132 -151.617,0.118 0.832,0.214 c -46.801,1.942 -83.528,42.012 -83.528,91.227 0,49.148 36.727,89.273 83.528,91.234 l -0.832,0.203 h 560.101 -1.957 c 45.114,-4.339 79.044,-43.66 79.044,-91.503 0,-47.664 -33.83,-86.793 -78.606,-91.375 -6.77,-0.118 -73.379,-0.118 -150.536,-0.118 -8.421,0 -20.175,-1.886 -28.191,-10.449 -7.047,-7.672 -8.144,-17.359 -8.144,-22.957 0,-1.512 0.066,-2.637 0.101,-3.43 l -0.035,1.918 V 115.574 c -1.348,-40.6404 -42.461,-74.0818 -91.816,-74.0818 -50.555,0 -91.711,34.2461 -91.711,76.3668 m -188.25,814.243 h -0.555 l -0.399,-0.204 c -68.703,-2.882 -122.703,-60.957 -122.703,-132.23 0,-71.234 54,-129.309 122.801,-132.27 h 0.371 l 0.485,-0.23 c 0,0 142.933,-0.133 147.785,-0.133 0,-13.672 -0.578,-549.176 -0.578,-549.176 0,-64.6988 59.582,-117.460562 132.754,-117.460562 72.593,0 130.82,50.374962 132.578,114.546562 0,0 0.218,540.243 0.218,552.09 146.657,0 147.075,0.067 148.856,0.301 66.625,6.426 116.545,63.285 116.545,132.266 0,69.046 -49.92,125.91 -116.135,132.296 l -0.926,0.129 -0.996,0.075 H 426.102" /><path
         id="path18"
         style="fill:#ee2722;fill-opacity:1;fill-rule:nonzero;stroke:none"
         d="m 2307.2,933.426 c -0.12,0 -0.37,0 -0.47,0.062 0.28,-0.062 0.47,-0.062 0.47,-0.062 m -0.68,0.137 c 0.08,-0.075 0.08,-0.075 0.21,-0.075 l -0.58,0.075 c 0.19,0 0.27,0 0.37,0 M 1908.49,146.262 v 642.093 c 0,57.43 38.28,104.161 85.33,104.161 116.47,0.343 291.64,0.675 307.27,0.343 122.3,-18.195 217.93,-124.57 217.93,-242.734 0,-50.762 -16.17,-99.547 -46.96,-140.777 -0.13,-0.16 -0.7,-0.946 -0.7,-0.946 -3.2,-3.839 -9.67,-11.785 -9.86,-22.484 v -0.504 c 0,-8.984 4.31,-17.41 12.87,-25.215 l 0.21,-0.136 c 51.86,-45.614 81.63,-110.321 81.63,-177.653 0,-133.086 -113.29,-241.3241 -252.45,-241.3241 h -309.94 c -47.05,0 -85.33,47.1914 -85.33,105.1761 m 85.25,787.301 c -69.64,0 -126.3,-65.176 -126.3,-145.208 V 146.262 c 0,-80.6487 56.66,-146.26590625 126.38,-146.26590625 h 309.94 c 161.8,0 293.38,126.71090625 293.38,282.41390625 0,77.067 -33.18,150.945 -90.95,204.18 35.11,47.808 53.9,104.43 53.9,163.535 0,140.43 -109.08,262.188 -253.57,283.438 -3.97,0.492 -26.76,0.757 -312.78,0" /><path
         id="path20"
         style="fill:#ee2722;fill-opacity:1;fill-rule:nonzero;stroke:none"
         d="m 2256.34,693.734 c 16.27,0 30.06,-19.839 30.06,-43.199 0,-23.355 -13.79,-43.129 -30.06,-43.129 -0.08,0 -104.96,-0.172 -128.51,-0.172 v 86.082 c 23.38,0.039 127.93,0.418 128.51,0.418 m -0.08,40.965 -133.39,-0.398 c -19.91,0 -36.08,-16.164 -36.08,-36.102 v -95.844 c 0,-19.902 16.17,-36.082 36.08,-36.082 l 133.47,0.129 c 39.18,0 71.06,37.746 71.06,84.133 0,46.449 -31.88,84.164 -71.06,84.164 h -0.08" /><path
         id="path22"
         style="fill:#ee2722;fill-opacity:1;fill-rule:nonzero;stroke:none"
         d="m 2130.5,264.438 c 20.22,0 146.54,0.167 146.54,0.167 19.91,0 36.02,19.317 36.02,43.161 0,23.507 -16.11,42.617 -36.02,42.617 0,0 -140.72,0.137 -146.54,0.137 z m -41.07,90.96 c 0,19.961 17.13,36.168 38.16,36.168 0,0 149.3,-0.152 149.45,-0.152 42.56,0 77.08,-37.598 77.08,-83.648 0,-46.426 -34.52,-84.161 -77.08,-84.161 0,0 -149.45,-0.136 -149.55,-0.136 -20.93,0 -38.06,16.164 -38.06,36.148 v 95.781" /><path
         id="path24"
         style="fill:#ee2722;fill-opacity:1;fill-rule:nonzero;stroke:none"
         d="m 1261,851.441 c 0,0.133 0.13,0.282 0.13,0.332 0.18,0.153 0.18,0.215 0.18,0.282 0,-0.129 -0.31,-0.614 -0.31,-0.614 m 0.31,0.614 0.08,0.136 c -0.04,-0.074 -0.04,-0.074 -0.08,-0.136 M 1031.04,51.4531 c -21.88,9.7696 -38.61,27.5 -46.899,49.9609 -8.715,23.219 -7.465,48.676 3.308,71.582 3.02,6.504 305.841,651.074 310.301,660.27 25.21,50.41 66.66,57.839 89.14,57.839 38.18,0 72.85,-22.585 88.38,-57.574 0,0 293.02,-661.976 293.2,-662.308 5.39,-12.325 8.15,-25.321 8.15,-38.164 0,-11.375 -2.15,-22.801 -6.43,-33.6488 -8.93,-22.3086 -26,-39.7539 -48.18,-49.0039 -46.86,-19.6915 -102.13,3.0468 -123.13,50.6597 l -41.5,93.457 -6.27,8.957 -8.95,4.5 -8.85,3.106 -7.57,-0.066 h -297.11 l -10.21,-1.161 -7.85,-4.5 -7.91,-6.129 -3.58,-6.859 -43.69,-92.9608 C 1133.28,52.2578 1077.57,30.7734 1031.04,51.4531 m 230.09,800.3199 c -1.78,-3.554 -21.99,-46.585 -310.853,-661.375 -8.589,-18.296 -12.925,-37.773 -12.925,-57.261 0,-15.535 2.828,-31.098 8.382,-46.0706 12.219,-32.8594 36.59,-58.8672 68.676,-73.0742 66.75,-29.6719 146.68,0.918 178.15,68.0312 0,0 37.5,79.8396 41.27,88.0036 h 289.52 c 4.73,-10.488 38.05,-85.527 38.05,-85.527 30,-67.8047 109.14,-100.1133 176.43,-71.9727 32.44,13.6172 57.48,39.1172 70.43,71.7813 13.26,33.2934 12.46,70.0504 -2.25,103.4724 l -293.28,662.418 c -22.13,49.75 -71.51,81.965 -125.84,81.965 -25.67,0 -89.12,-7.801 -125.76,-80.391" /><path
         id="path26"
         style="fill:#ee2722;fill-opacity:1;fill-rule:nonzero;stroke:none"
         d="m 1328.92,397.785 c -0.88,1.281 -1.39,3.492 -1.39,6.113 0,3.985 1,9.106 3.56,14.957 l 44.74,103.125 c 1.21,2.993 2.46,5.04 3.52,6.559 0.94,-1.519 2.19,-3.566 3.59,-6.559 l 44.77,-103.195 c 2.5,-5.781 3.46,-10.902 3.46,-14.742 0,-2.766 -0.53,-4.887 -1.41,-6.121 -0.25,-0.574 -1.21,-2.02 -5.74,-2.02 h -89.46 c -4.43,0 -5.43,1.446 -5.64,1.883 m 50.43,174.078 c -9.98,0 -28.46,-4.34 -41.23,-33.558 v 0 L 1293.51,435.09 c -9.67,-22.152 -9.28,-43.973 1.09,-59.731 8.58,-12.961 23.07,-20.5 39.96,-20.5 h 89.46 c 16.91,0 31.46,7.539 40.04,20.5 10.37,15.758 10.82,37.579 1.25,59.731 -0.06,0.062 -44.77,103.215 -44.77,103.215 -12.73,29.218 -31.35,33.558 -41.19,33.558" /></g></g></svg>