<svg id="Group_7" data-name="Group 7" xmlns="http://www.w3.org/2000/svg" viewBox="0 0 95.368 107.156">
  <defs>
    <style>
      .cls-1, .cls-3 {
        fill: #003d58;
      }

      .cls-2 {
        fill: #b2bb1e;
      }

      .cls-3 {
        fill-rule: evenodd;
      }
    </style>
  </defs>
  <g id="Group_1" data-name="Group 1" transform="translate(4.563 62.97)">
    <path id="Path_1" data-name="Path 1" class="cls-1" d="M29.576,117.608a13.75,13.75,0,0,1-10.191,4.031C11.7,121.639,6,116.163,6,108.482,6,99.736,12.616,93.5,21.21,93.5c2.434,0,8.061.761,8.061,4.183a2.251,2.251,0,0,1-2.053,2.282c-1.521,0-2.053-1.369-2.738-2.434-.684-.989-1.217-1.521-3.574-1.521-6.693,0-8.746,6.008-8.746,11.484,0,6.008,1.825,11.18,8.822,11.18,3.955,0,7.149-3.574,8.137-5.171C29.2,113.5,31.325,115.783,29.576,117.608Z" transform="translate(-6 -85.363)"/>
    <path id="Path_2" data-name="Path 2" class="cls-2" d="M56.346,107.517c6.312.456,13.081.761,13.081,9.05,0,7.909-7.377,10.419-14.146,10.419-5.171,0-13.081-1.825-13.081-8.29,0-2.586,1.9-5.172,4.639-5.172a3.56,3.56,0,0,1,2.586,1.141,4.412,4.412,0,0,0-3.27,4.411c0,4.183,5.78,5.856,10.115,5.856s8.822-2.738,8.822-6.312c0-6.084-6.845-5.78-11.1-6.008-4.107-.152-9.735,0-9.735-5.628,0-2.966,2.814-4.943,5.476-5.324v-.152c-3.574-1.217-6.693-4.639-6.693-8.594,0-6.616,5.628-10.115,11.712-10.115a11.489,11.489,0,0,1,7.909,2.814c1.673-1.293,3.8-2.586,6.008-2.586,1.6,0,3.65.76,3.65,2.662a2,2,0,0,1-2.053,2.053c-1.9,0-2.129-2.205-4.031-2.205a4.536,4.536,0,0,0-2.586,1.217,8.965,8.965,0,0,1,2.205,6.084c0,7.377-4.867,9.506-11.256,10.039-2.51.228-7-.076-7,2.282,0,2.205,3.042,1.977,4.411,2.129Zm4.943-14.6c0-3.955-1.977-8.061-6.769-8.061s-6.845,4.107-6.845,8.061c0,3.727,2.129,8.137,6.616,8.137C59.159,101.052,61.289,96.946,61.289,92.915Z" transform="translate(-14.669 -82.8)"/>
    <path id="Path_3" data-name="Path 3" class="cls-1" d="M98.895,103.919c.608-.3.532-1.141.532-1.825,0-4.259-.38-7-5.476-7-2.586,0-5.78.38-5.78,3.346a2.581,2.581,0,0,1-2.51,2.738A2.158,2.158,0,0,1,83.3,98.976c0-4.639,8.29-5.476,11.484-5.476,6.921,0,10.115,1.825,10.115,8.974v10.267c0,1.521-.3,5.78,2.129,5.78,1.217,0,2.51-1.825,3.194-2.662a2.893,2.893,0,0,1,.532,2.053c-.3,2.053-3.194,3.8-5.552,3.8a5.231,5.231,0,0,1-5.248-4.107,17.044,17.044,0,0,1-10.5,4.107c-3.27,0-6.464-1.977-6.464-5.476,0-5.248,5.932-7.453,9.887-9.278ZM99.5,105.9c-3.727,1.825-10.8,4.715-10.8,8.822a3.712,3.712,0,0,0,3.955,3.955c2.282,0,4.639-1.977,6.388-3.65a2.165,2.165,0,0,0,.456-1.065Z" transform="translate(-24.441 -85.363)"/>
  </g>
  <g id="Group_6" data-name="Group 6">
    <path id="Path_32" data-name="Path 32" class="cls-1" d="M29.813,32.705,29.357,30.5A193.521,193.521,0,0,0,10.8,38.714C20.23,35.291,26.771,33.466,29.813,32.705Z" transform="translate(-2.586 -7.304)"/>
    <path id="Path_33" data-name="Path 33" class="cls-1" d="M26.61,29.958,26,27.6,11.4,37.182C18.321,33.608,23.492,31.327,26.61,29.958Z" transform="translate(-2.73 -6.61)"/>
    <path id="Path_34" data-name="Path 34" class="cls-2" d="M47.684,62.06c20.458,0,38.254,6.693,47.684,16.579C88.752,65.406,69.891,55.9,47.684,55.9S6.616,65.406,0,78.563C9.43,68.753,27.226,62.06,47.684,62.06Z" transform="translate(0 -13.387)"/>
    <path id="Path_35" data-name="Path 35" class="cls-1" d="M59.2,34.914c9.126,0,14.754,1.6,17.8,2.814V37.2a17.8,17.8,0,0,0-35.592,0v.532C44.442,36.512,50.07,34.914,59.2,34.914Z" transform="translate(-9.915 -4.646)"/>
    <path id="Path_36" data-name="Path 36" class="cls-1" d="M62.908,13a19.832,19.832,0,0,1,6.008.913v-.989c0-2.205-2.662-4.183-4.487-5.171V2.966C64.429,1.293,63.821,0,62.908,0s-1.445,1.293-1.445,2.966V7.833C59.638,8.822,56.9,10.8,56.9,13v.989A20.285,20.285,0,0,1,62.908,13Z" transform="translate(-13.627)"/>
    <g id="Group_3" data-name="Group 3" transform="translate(6.297 25.857)">
      <path id="Path_37" data-name="Path 37" class="cls-1" d="M11.565,60.01a57.5,57.5,0,0,1,18.48-8.594V43.2l.684-.532a11.241,11.241,0,0,1,2.129-1.141C32.1,37.27,31.567,34,31.567,34,25.179,35.065,12.25,39.4,8.6,40.616c-.152.076-.38.3-.3.837Z" transform="translate(-8.28 -34)"/>
    </g>
    <g id="Group_4" data-name="Group 4" transform="translate(29.964 32.018)">
      <path id="Path_38" data-name="Path 38" class="cls-1" d="M43.279,52.063V47.348a2.277,2.277,0,0,1,.3-.608c.076-.076.152-.228.3-.3.076-.076.152-.076.228-.152a1.128,1.128,0,0,1,.532-.076,1.285,1.285,0,0,1,.761.228c.076.076.152.076.228.152s.152.228.228.3.076.228.152.38V51.53c1.369-.228,2.814-.38,4.259-.532V46.891a1.369,1.369,0,0,1,2.738,0V50.77c1.369-.076,2.814-.076,4.183-.076h.152V46.815a1.369,1.369,0,1,1,2.738,0V50.77c1.445.076,2.966.152,4.411.3V46.967a1.369,1.369,0,0,1,2.738,0v4.411c1.521.228,3.042.456,4.487.761V47.652a1.369,1.369,0,1,1,2.738,0v5.1c1.369.3,2.738.684,4.031,1.065V45.979S73.243,42.1,58.945,42.1C44.724,42.1,39.4,45.979,39.4,45.979v7C40.541,52.6,41.91,52.367,43.279,52.063Z" transform="translate(-39.4 -42.1)"/>
    </g>
    <g id="Group_5" data-name="Group 5" transform="translate(70.42 18.25)">
      <path id="Path_39" data-name="Path 39" class="cls-3" d="M94.728,36.32c1.065,0,2.358-.38,3.346-.38a2.073,2.073,0,0,1,1.217.3h-.38c-2.053,0-3.8,1.369-5.324,3.5-.3.456-.608.913-.913,1.445v8.822c1.749.532,3.346,1.217,5.019,1.9a8.753,8.753,0,0,1,7.681-5.78,7.8,7.8,0,0,0,.3-1.065c.608-2.434.38-5.248-1.369-6.693.76-.3.837-.684,1.749-.38.989.228,1.9,1.141,2.662,1.141s2.434-.456,2.662-1.445c.152-.989-.684-1.369-1.141-1.825.913-.152,1.977,0,2.738-.761a1.441,1.441,0,0,0,0-2.205c-.608-.761-2.51-.684-2.814-.761,2.586-.3,5.324-3.65,1.673-4.259,1.141-2.129-.456-3.955-2.586-3.879a2.422,2.422,0,0,0-2.205,1.369,2.258,2.258,0,0,0-2.129-1.217h0c-2.053-.076-2.662,1.977-1.369,3.5a2.793,2.793,0,0,0-2.434,3.27c.38,1.293,1.825,1.141,1.977,2.205.228,1.141-.761,2.129-1.369,3.879l-.837-.38c-.076-.076-.228-.076-.3-.152a8.847,8.847,0,0,0-.913-3.422c-1.065-2.053-2.053-2.586-3.118-2.662a3.343,3.343,0,0,0-2.434.761c-.684.989-.684,1.445,0,2.129-.38,0-1.6.228-1.521,1.141A1.838,1.838,0,0,0,94.728,36.32Z" transform="translate(-92.596 -23.997)"/>
    </g>
    <path id="Path_40" data-name="Path 40" class="cls-3" d="M113.012,66.454a6.942,6.942,0,0,0,2.129-5.1,7.024,7.024,0,0,0-4.259-6.464c4.487-.761,4.107-3.27,4.107-3.27-3.118-1.825-5.171,1.293-5.932,2.738a4.677,4.677,0,0,0-1.065-.076,6.991,6.991,0,0,0-6.693,4.791A51.217,51.217,0,0,1,113.012,66.454Z" transform="translate(-24.26 -12.23)"/>
  </g>
</svg>
