<?xml version="1.0" encoding="UTF-8"?> <svg xmlns="http://www.w3.org/2000/svg" viewBox="0 0 100.566 157.906"><defs><style> .cls-1, .cls-2 { fill: #fff; } .cls-2 { fill-rule: evenodd; } </style></defs><g id="Group_104" data-name="Group 104" transform="translate(0 0)"><g id="Group_1" data-name="Group 1" transform="translate(4.812 66.402)"><path id="Path_1" data-name="Path 1" class="cls-1" d="M30.861,118.922a14.5,14.5,0,0,1-10.746,4.25C12.015,123.173,6,117.4,6,109.3c0-9.223,6.977-15.8,16.039-15.8,2.566,0,8.5.8,8.5,4.411a2.374,2.374,0,0,1-2.165,2.406c-1.6,0-2.165-1.444-2.887-2.566-.722-1.043-1.283-1.6-3.769-1.6-7.057,0-9.223,6.336-9.223,12.11,0,6.336,1.925,11.789,9.3,11.789,4.17,0,7.538-3.769,8.581-5.453C30.46,114.592,32.705,117,30.861,118.922Z" transform="translate(-6 -84.919)"></path><path id="Path_2" data-name="Path 2" class="cls-1" d="M57.116,108.864c6.656.481,13.794.8,13.794,9.543,0,8.34-7.779,10.987-14.916,10.987-5.453,0-13.794-1.925-13.794-8.741,0-2.727,2-5.453,4.892-5.453a3.754,3.754,0,0,1,2.727,1.2c-2.165.4-3.448,2.646-3.448,4.651,0,4.411,6.095,6.175,10.666,6.175s9.3-2.887,9.3-6.656c0-6.416-7.218-6.095-11.709-6.335-4.331-.16-10.265,0-10.265-5.935,0-3.128,2.967-5.213,5.774-5.614v-.16c-3.769-1.283-7.057-4.892-7.057-9.062,0-6.977,5.935-10.666,12.35-10.666a12.115,12.115,0,0,1,8.34,2.967c1.764-1.363,4.01-2.727,6.335-2.727,1.684,0,3.849.8,3.849,2.807a2.107,2.107,0,0,1-2.165,2.165c-2,0-2.245-2.326-4.25-2.326a4.783,4.783,0,0,0-2.727,1.283,9.454,9.454,0,0,1,2.326,6.416c0,7.779-5.133,10.025-11.869,10.586-2.646.241-7.378-.08-7.378,2.406,0,2.326,3.208,2.085,4.651,2.246Zm5.213-15.4c0-4.17-2.085-8.5-7.137-8.5s-7.218,4.331-7.218,8.5c0,3.93,2.245,8.581,6.977,8.581C60.084,102.047,62.329,97.716,62.329,93.466Z" transform="translate(-13.169 -82.8)"></path><path id="Path_3" data-name="Path 3" class="cls-1" d="M99.761,104.487c.642-.321.561-1.2.561-1.925,0-4.491-.4-7.378-5.774-7.378-2.727,0-6.095.4-6.095,3.529a2.722,2.722,0,0,1-2.646,2.887,2.276,2.276,0,0,1-2.486-2.326c0-4.892,8.741-5.774,12.11-5.774,7.3,0,10.666,1.925,10.666,9.463V113.79c0,1.6-.321,6.095,2.245,6.095,1.283,0,2.646-1.925,3.368-2.807a3.05,3.05,0,0,1,.561,2.165c-.321,2.165-3.368,4.01-5.854,4.01a5.517,5.517,0,0,1-5.534-4.331,17.973,17.973,0,0,1-11.067,4.331c-3.448,0-6.817-2.085-6.817-5.774,0-5.534,6.255-7.859,10.426-9.784Zm.642,2.085c-3.93,1.925-11.388,4.972-11.388,9.3a3.914,3.914,0,0,0,4.17,4.17c2.406,0,4.892-2.085,6.736-3.849a2.283,2.283,0,0,0,.481-1.123Z" transform="translate(-21.249 -84.919)"></path></g><g id="Group_2" data-name="Group 2" transform="translate(15.879 125.427)"><path id="Path_4" data-name="Path 4" class="cls-1" d="M25.868,163.377a3.356,3.356,0,0,1-3.368-3.448,3.425,3.425,0,0,1,3.368-3.529,3.623,3.623,0,0,1,2.646,1.043l-.481.561a2.849,2.849,0,0,0-2.085-.962,2.812,2.812,0,0,0,0,5.614,2.746,2.746,0,0,0,2.165-.962l.481.481A3.62,3.62,0,0,1,25.868,163.377Z" transform="translate(-20.335 -156.4)"></path><path id="Path_5" data-name="Path 5" class="cls-1" d="M37.9,163.217h-.8l-.8-1.764H32.6l-.8,1.764H31l3.047-6.817h.722Zm-3.448-5.854-1.524,3.448h3.047Z" transform="translate(-22.018 -156.4)"></path><path id="Path_6" data-name="Path 6" class="cls-1" d="M41.28,156.5H42v6.015h3.769v.722H41.2V156.5Z" transform="translate(-24.038 -156.42)"></path><path id="Path_7" data-name="Path 7" class="cls-1" d="M49.422,156.5v6.736H48.7V156.5Z" transform="translate(-25.523 -156.42)"></path><path id="Path_8" data-name="Path 8" class="cls-1" d="M57.012,157.242h-4.09v2.406h3.609v.722H52.922v2.967H52.2V156.6h4.812Z" transform="translate(-26.216 -156.44)"></path><path id="Path_9" data-name="Path 9" class="cls-1" d="M62.848,163.377a3.373,3.373,0,0,1-3.448-3.448,3.439,3.439,0,0,1,3.448-3.529,3.373,3.373,0,0,1,3.448,3.448A3.439,3.439,0,0,1,62.848,163.377Zm0-6.336a2.812,2.812,0,1,0,2.646,2.807A2.659,2.659,0,0,0,62.848,157.042Z" transform="translate(-27.642 -156.4)"></path><path id="Path_10" data-name="Path 10" class="cls-1" d="M74.751,163.236l-1.925-2.646h-2v2.646H70.1V156.5h2.887c1.444,0,2.406.8,2.406,2a2.069,2.069,0,0,1-1.845,2l2.085,2.727Zm-1.845-6.015H70.822v2.727h2.085c1.043,0,1.764-.481,1.764-1.363S74.03,157.222,72.907,157.222Z" transform="translate(-29.761 -156.42)"></path><path id="Path_11" data-name="Path 11" class="cls-1" d="M83.772,156.5h.722v6.736h-.642L79.522,157.7v5.534H78.8V156.5h.722l4.25,5.373Z" transform="translate(-31.484 -156.42)"></path><path id="Path_12" data-name="Path 12" class="cls-1" d="M89.222,156.5v6.736H88.5V156.5Z" transform="translate(-33.405 -156.42)"></path><path id="Path_13" data-name="Path 13" class="cls-1" d="M97.9,163.217h-.8l-.8-1.764H92.6l-.8,1.764H91l3.047-6.817h.722Zm-3.448-5.854-1.524,3.448h3.047Z" transform="translate(-33.9 -156.4)"></path><path id="Path_14" data-name="Path 14" class="cls-1" d="M29.37,179.9a3.918,3.918,0,0,1-4.17-4.01h0a4.056,4.056,0,0,1,4.09-4.09,4.732,4.732,0,0,1,3.128,1.043l-1.123,1.283a3.049,3.049,0,0,0-2.085-.8,2.353,2.353,0,0,0-2.245,2.486h0A2.337,2.337,0,0,0,29.37,178.3a2.545,2.545,0,0,0,1.6-.481v-1.123H29.21v-1.524h3.448v3.448A4.587,4.587,0,0,1,29.37,179.9Z" transform="translate(-20.869 -159.45)"></path><path id="Path_15" data-name="Path 15" class="cls-1" d="M41.612,179.759l-1.684-2.486H38.564v2.486H36.8V171.9h3.609c1.845,0,2.967.962,2.967,2.566h0a2.39,2.39,0,0,1-1.684,2.406l1.925,2.807h-2Zm.08-5.133c0-.722-.481-1.123-1.363-1.123H38.564v2.245h1.764c.882,0,1.363-.481,1.363-1.123Z" transform="translate(-23.167 -159.47)"></path><path id="Path_16" data-name="Path 16" class="cls-1" d="M50.67,179.9a4.059,4.059,0,0,1-4.17-4.01h0a4.172,4.172,0,0,1,8.34-.08h0A4.075,4.075,0,0,1,50.67,179.9Zm2.406-4.09a2.369,2.369,0,1,0-4.732,0h0A2.382,2.382,0,0,0,50.75,178.3a2.318,2.318,0,0,0,2.326-2.486Z" transform="translate(-25.088 -159.45)"></path><path id="Path_17" data-name="Path 17" class="cls-1" d="M62.41,179.9a3.922,3.922,0,0,1-4.01-4.01h0a4.007,4.007,0,0,1,4.09-4.09,4.156,4.156,0,0,1,3.128,1.2l-1.123,1.283a2.872,2.872,0,0,0-2-.882,2.3,2.3,0,0,0-2.245,2.486h0a2.353,2.353,0,0,0,2.245,2.486,2.912,2.912,0,0,0,2.085-.882l1.123,1.123A4.734,4.734,0,0,1,62.41,179.9Z" transform="translate(-27.444 -159.45)"></path><path id="Path_18" data-name="Path 18" class="cls-1" d="M69.1,179.759V171.9h5.935v1.524h-4.25v1.6h3.689v1.524H70.784v1.684h4.25v1.524H69.1Z" transform="translate(-29.563 -159.47)"></path><path id="Path_19" data-name="Path 19" class="cls-1" d="M83.412,179.759l-1.684-2.486H80.364v2.486H78.6V171.9h3.609c1.845,0,2.967.962,2.967,2.566h0a2.39,2.39,0,0,1-1.684,2.406l1.925,2.807h-2Zm.08-5.133c0-.722-.481-1.123-1.363-1.123H80.445v2.245h1.684c.882,0,1.363-.481,1.363-1.123Z" transform="translate(-31.445 -159.47)"></path><path id="Path_20" data-name="Path 20" class="cls-1" d="M91.468,179.82a4.928,4.928,0,0,1-3.368-1.283l1.043-1.2a3.748,3.748,0,0,0,2.326.962c.722,0,1.123-.321,1.123-.722h0c0-.4-.241-.642-1.6-.962-1.6-.4-2.566-.882-2.566-2.406h0a2.455,2.455,0,0,1,2.727-2.406,4.478,4.478,0,0,1,2.887.962l-.882,1.283a3.778,3.778,0,0,0-2-.8c-.642,0-1.043.321-1.043.722h0c0,.481.321.722,1.684,1.043,1.6.4,2.486.962,2.486,2.326h0C94.355,179.018,93.152,179.82,91.468,179.82Z" transform="translate(-33.326 -159.45)"></path><path id="Path_21" data-name="Path 21" class="cls-1" d="M26.7,195.017h-.8l-.8-1.764H21.4l-.8,1.764h-.8l3.047-6.817h.722Zm-3.448-5.854-1.524,3.448h3.047Z" transform="translate(-19.8 -162.698)"></path><path id="Path_22" data-name="Path 22" class="cls-1" d="M32.387,191.367c1.524.321,2.165.882,2.165,1.925,0,1.2-.962,1.925-2.326,1.925a3.879,3.879,0,0,1-2.727-1.043l.481-.561a3.212,3.212,0,0,0,2.326.962c.882,0,1.524-.481,1.524-1.123s-.321-.962-1.764-1.283c-1.524-.321-2.245-.8-2.245-1.925a2.032,2.032,0,0,1,2.245-1.845,3.636,3.636,0,0,1,2.406.8l-.561.481a3.2,3.2,0,0,0-1.925-.722c-.882,0-1.444.481-1.444,1.123C30.543,190.645,30.863,191.046,32.387,191.367Z" transform="translate(-21.721 -162.737)"></path><path id="Path_23" data-name="Path 23" class="cls-1" d="M40.087,191.367c1.524.321,2.165.882,2.165,1.925,0,1.2-.962,1.925-2.326,1.925a3.879,3.879,0,0,1-2.727-1.043l.481-.561a3.212,3.212,0,0,0,2.326.962c.882,0,1.524-.481,1.524-1.123s-.321-.962-1.764-1.283c-1.524-.321-2.245-.8-2.245-1.925a2.032,2.032,0,0,1,2.245-1.845,3.636,3.636,0,0,1,2.406.8l-.481.561a3.2,3.2,0,0,0-1.925-.722c-.882,0-1.444.481-1.444,1.123C38.243,190.645,38.644,191.046,40.087,191.367Z" transform="translate(-23.246 -162.737)"></path><path id="Path_24" data-name="Path 24" class="cls-1" d="M48.448,195.177A3.373,3.373,0,0,1,45,191.729a3.439,3.439,0,0,1,3.448-3.529,3.373,3.373,0,0,1,3.448,3.448A3.439,3.439,0,0,1,48.448,195.177Zm0-6.335a2.812,2.812,0,1,0,2.646,2.807A2.659,2.659,0,0,0,48.448,188.842Z" transform="translate(-24.791 -162.698)"></path><path id="Path_25" data-name="Path 25" class="cls-1" d="M58.668,195.177a3.356,3.356,0,0,1-3.368-3.448,3.425,3.425,0,0,1,3.368-3.529,3.622,3.622,0,0,1,2.646,1.043l-.481.561a2.849,2.849,0,0,0-2.085-.962,2.812,2.812,0,0,0,0,5.614,2.746,2.746,0,0,0,2.165-.962l.481.481A3.754,3.754,0,0,1,58.668,195.177Z" transform="translate(-26.83 -162.698)"></path><path id="Path_26" data-name="Path 26" class="cls-1" d="M65.322,188.3v6.736H64.6V188.3Z" transform="translate(-28.672 -162.717)"></path><path id="Path_27" data-name="Path 27" class="cls-1" d="M74,195.017h-.8l-.8-1.764H68.7l-.8,1.764h-.8l3.047-6.817h.722Zm-3.448-5.854-1.524,3.448h3.047Z" transform="translate(-29.167 -162.698)"></path><path id="Path_28" data-name="Path 28" class="cls-1" d="M78.647,195.036h-.8v-6.015H75.6V188.3h5.293v.722H78.647Z" transform="translate(-30.851 -162.717)"></path><path id="Path_29" data-name="Path 29" class="cls-1" d="M84.722,188.3v6.736H84V188.3Z" transform="translate(-32.514 -162.717)"></path><path id="Path_30" data-name="Path 30" class="cls-1" d="M90.448,195.177A3.373,3.373,0,0,1,87,191.729a3.439,3.439,0,0,1,3.448-3.529,3.373,3.373,0,0,1,3.448,3.448A3.49,3.49,0,0,1,90.448,195.177Zm0-6.335a2.812,2.812,0,1,0,2.646,2.807A2.659,2.659,0,0,0,90.448,188.842Z" transform="translate(-33.108 -162.698)"></path><path id="Path_31" data-name="Path 31" class="cls-1" d="M102.592,188.3h.722v6.736h-.561L98.422,189.5v5.534H97.7V188.3h.722l4.25,5.373V188.3Z" transform="translate(-35.227 -162.717)"></path></g><g id="Group_6" data-name="Group 6"><path id="Path_32" data-name="Path 32" class="cls-1" d="M30.849,32.826,30.368,30.5A204.066,204.066,0,0,0,10.8,39.161C20.744,35.552,27.641,33.628,30.849,32.826Z" transform="translate(-2.139 -6.04)"></path><path id="Path_33" data-name="Path 33" class="cls-1" d="M27.439,30.086,26.8,27.6,11.4,37.7C18.7,33.935,24.151,31.53,27.439,30.086Z" transform="translate(-2.258 -5.466)"></path><path id="Path_34" data-name="Path 34" class="cls-1" d="M50.283,62.4c21.573,0,40.339,7.057,50.283,17.483C93.589,65.925,73.7,55.9,50.283,55.9S6.977,65.925,0,79.8C9.944,69.453,28.71,62.4,50.283,62.4Z" transform="translate(0 -11.07)"></path><path id="Path_35" data-name="Path 35" class="cls-1" d="M60.166,35.76c9.624,0,15.558,1.684,18.766,2.967v-.561a18.766,18.766,0,0,0-37.532,0v.561C44.608,37.444,50.542,35.76,60.166,35.76Z" transform="translate(-8.199 -3.842)"></path><path id="Path_36" data-name="Path 36" class="cls-1" d="M63.236,13.714a20.913,20.913,0,0,1,6.335.962V13.633c0-2.326-2.807-4.411-4.732-5.453V3.128C64.839,1.363,64.2,0,63.236,0s-1.524,1.363-1.524,3.128V8.26C59.787,9.3,56.9,11.388,56.9,13.714v1.043A21.391,21.391,0,0,1,63.236,13.714Z" transform="translate(-11.268)"></path><g id="Group_3" data-name="Group 3" transform="translate(6.64 27.267)"><path id="Path_37" data-name="Path 37" class="cls-1" d="M11.745,61.427a60.634,60.634,0,0,1,19.488-9.062V43.7l.722-.561a11.854,11.854,0,0,1,2.245-1.2C33.4,37.448,32.836,34,32.836,34c-6.736,1.123-20.37,5.694-24.219,6.977-.16.08-.4.321-.321.882Z" transform="translate(-8.28 -34)"></path></g><g id="Group_4" data-name="Group 4" transform="translate(31.597 33.763)"><path id="Path_38" data-name="Path 38" class="cls-1" d="M43.49,52.606V47.634a2.4,2.4,0,0,1,.321-.642c.08-.08.16-.241.321-.321.08-.08.16-.08.241-.16a1.189,1.189,0,0,1,.561-.08,1.355,1.355,0,0,1,.8.241c.08.08.16.08.241.16s.16.241.241.321.08.241.16.4v4.491c1.444-.241,2.967-.4,4.491-.561V47.152a1.444,1.444,0,1,1,2.887,0v4.09c1.444-.08,2.967-.08,4.411-.08h.16v-4.09a1.444,1.444,0,1,1,2.887,0v4.17c1.524.08,3.128.16,4.651.321V47.233a1.444,1.444,0,0,1,2.887,0v4.651c1.6.241,3.208.481,4.732.8V47.954a1.444,1.444,0,1,1,2.887,0v5.373c1.444.321,2.887.722,4.25,1.123V46.19S75.087,42.1,60.01,42.1c-15,0-20.61,4.09-20.61,4.09v7.378C40.6,53.167,42.046,52.926,43.49,52.606Z" transform="translate(-39.4 -42.1)"></path></g><g id="Group_5" data-name="Group 5" transform="translate(74.258 19.245)"><path id="Path_39" data-name="Path 39" class="cls-2" d="M94.845,36.991c1.123,0,2.486-.4,3.529-.4a2.186,2.186,0,0,1,1.283.321h-.4c-2.165,0-4.01,1.444-5.614,3.689-.321.481-.642.962-.962,1.524v9.3c1.845.561,3.529,1.283,5.293,2a9.23,9.23,0,0,1,8.1-6.095,8.229,8.229,0,0,0,.321-1.123c.642-2.566.4-5.534-1.444-7.057.8-.321.882-.722,1.845-.4,1.043.241,2,1.2,2.807,1.2s2.566-.481,2.807-1.524c.16-1.043-.722-1.444-1.2-1.925.962-.16,2.085,0,2.887-.8a1.52,1.52,0,0,0,0-2.326c-.642-.8-2.646-.722-2.967-.8,2.727-.321,5.614-3.849,1.764-4.491,1.2-2.245-.481-4.17-2.727-4.09a2.554,2.554,0,0,0-2.326,1.444,2.381,2.381,0,0,0-2.245-1.283h0c-2.165-.08-2.807,2.085-1.444,3.689a2.945,2.945,0,0,0-2.566,3.448c.4,1.363,1.925,1.2,2.085,2.326.241,1.2-.8,2.245-1.444,4.09l-.882-.4c-.08-.08-.241-.08-.321-.16a9.329,9.329,0,0,0-.962-3.609c-1.123-2.165-2.165-2.727-3.288-2.807a3.525,3.525,0,0,0-2.566.8c-.722,1.043-.722,1.524,0,2.245-.4,0-1.684.241-1.6,1.2A1.938,1.938,0,0,0,94.845,36.991Z" transform="translate(-92.596 -23.997)"></path></g><path id="Path_40" data-name="Path 40" class="cls-2" d="M113.65,67.293A7.321,7.321,0,0,0,115.9,61.92,7.407,7.407,0,0,0,111.4,55.1c4.732-.8,4.331-3.448,4.331-3.448-3.288-1.925-5.453,1.363-6.255,2.887a4.932,4.932,0,0,0-1.123-.08,7.372,7.372,0,0,0-7.057,5.052A54.009,54.009,0,0,1,113.65,67.293Z" transform="translate(-20.061 -10.113)"></path></g></g></svg> 