<!-- 
  Source: https://github.com/achord/SVG-US-MAP 
  US Bounding Rectangle (latitude & longitude): 
    top = 50.2
    right = -66.95
    bottom = 24.7
    left = -124.75
-->
<svg xmlns="http://www.w3.org/2000/svg" viewBox="0 0 599.96 327.28">
  <defs>
    <style>
      .cls-1 {
        opacity: 0.5;
      }

      .cls-2 {
        fill: #d47003;
        stroke: #fff;
        stroke-width: 0.5px;
      }
    </style>
  </defs>
  <title>usmap-mcp</title>
  <g id="Layer_1" data-name="Layer 1" class="cls-1">
    <g>
	
      <path id="US-AL" class="cls-2" d="M406.9,201.7l0.28,1.61,0.28,1.61,0.28,1.61,0.28,1.6,0.28,1.6,0.28,1.6,0.28,1.6,0.28,1.6,0.28,1.59,0.28,1.59,0.28,1.59,0.28,1.59,0.28,1.58,0.28,1.58,0.28,1.58,0.28,1.58,0.25,0.72,0.21,1.16,1.47,3.42,0.43,1.43-0.12.6,0.19,0.51,0.49,0.42-0.09.49-0.66.55-0.43.66-0.31,1.18h0l-0.62,2.07v1.26l0.6,1.72h0l0.12,0.76-0.39,3.35,0.26,2.15,0.63,1.4H386.51l-0.14.86,0.07,0.83,0.36,0.78,1.5,1.49,0.14,0.36-0.26,1.15,0,0.82-0.17.42-0.36.38-0.1.41-0.24.11-1.14,1.24-4,.41,0.22-.28,0.84-.06,1.18-.39-0.24-.66-0.45-.73-0.42-.08-0.28-.43v-1.35l-0.26-.78-0.65-.81-0.22.15-0.47,1.38-0.4,1.81-0.2.58-1.18,0-1-.12-0.52,0L378,256.17l-0.11-2.25-0.11-2.26-0.11-2.26-0.11-2.27-0.11-2.27-0.11-2.27-0.11-2.28,0.25-2.25,0.25-2.25,0.25-2.26,0.25-2.26L378.5,229l0.25-2.27,0.25-2.28,0.25-2.28,0.25-2.28,0.25-2.29,0.25-2.29,0.25-2.31,0.25-2.31,0.25-2.32L381,206l0.25-2.33,0.07-.58v-0.2l0-.3-0.92-.83-0.18-.17-0.13-.15h0.13l1.67,0,1.67,0,1.67,0,1.67,0,1.67,0,1.67,0,1.67,0,1.67,0,1.67,0,1.67,0,1.67,0,1.67,0,1.67,0,1.67,0,1.67,0ZM381.49,260l-0.92.25-1.36,0-0.28-.09,0.54-.17,1.61-.23Z" transform="translate(-0.78 0.56)"/>
      <path id="US-AR" class="cls-2" d="M364.52,189l0,0.23,0.21,0.51V190l-0.15.18-0.35.11-0.26.12-0.06.22v0.1l0,0.24,0,0.22-0.17.28-1.19.71-0.52.9,0.18,1.11-0.42,1.12-1,1.14-0.43,1.26,0.15,1.4L360,200.27l-1.18.86-0.39.53v0.43l0.12,0.31-0.4.58-1,.6-0.54.58-0.08.57-0.23.28-0.43.12-0.25.84-0.21,2-0.54,1.12-0.86.28-0.45.44-0.07.61-0.51.69-1,.79-0.32.75,0.33,0.72-0.07.29-0.29.23-1,.34-0.18.17-0.1.19,0.21,0.36,0.12,0.54-0.15.92-0.25.39-0.24.36-0.86.65-0.24.5,0.39,0.34,0,0.39-0.43.42,0.12,0.44,0.1,0.31,0.41,0.28,0.13,0.76-0.29,1,0.06,0.81,0.49,0.66L350,224l-0.47,2.18,0,0.31h-30v-1.68l0-1.67v-1.69l0-1.68-0.53-.29-1-.14-0.5.1-0.58-.08-0.39.28-0.26.06-0.21-.07-0.12-.24-0.44-.18-0.54-.61,0-1.35,0-1.36,0-1.35,0-1.36,0-1.36,0-1.36,0-1.37,0-1.36,0-1.37,0-1.37,0-1.37,0-1.37,0-1.37,0-1.38,0-1.38,0-1.37L315.14,195l-0.23-1.76-0.23-1.78-0.23-1.78L314.21,188,314,186.16l-0.23-1.78-0.23-1.8h46.27l0.45,1,0.45,0.65,0.08,0.47-0.09.49-0.76,1-0.69.49-0.38.52-0.53.49-0.81,1.37,1.7,0,1.71,0,1.71,0Z" transform="translate(-0.78 0.56)"/>
      <path id="US-AZ" class="cls-2" d="M163.72,176.15v70.91H143l-4.92-1.79-4.93-1.8-4.92-1.8-4.92-1.8-4.93-1.81-4.92-1.81-4.93-1.81-4.92-1.81,0.5-.69,0.66-1.84,0-.11h0l1.44-.13,0.68-.46,0.4-.85,0.09-.87-0.22-.87-0.62-.66-1-.43-0.58-1.2-0.15-2,0.18-1.07,0.53-.17,0.51-.49,0.47-.82,0.36-.89,0.23-1,0-1.22L107,215.45l0.94-1.83,0.93-1.14,1.72-1.39,0.4-.42V210.3l-0.35-.49-1.54-1-0.66-.69-0.06-.64h0l-0.2-.62-1.65-2.58-0.55-1.41v-1.15l0.2-4.49-0.6-1.56-0.13-.88,0.17-1.08,0-.68-0.29-.58-0.07-1.07,0-1.32-0.47-.85-0.09-.38,0.26-.92,0.49-.47,0.79-.33L107,187l1,0.1,0.77,0.42,0.52,0.72,0.51,0.36h0.51L111,188l0.61-1.27,0.19-.08,0-5.54v-5.05h51.85Z" transform="translate(-0.78 0.56)"/>
      <path id="US-CA" class="cls-2" d="M50,109.09v40.83l2.44,2.17,2.44,2.17,2.44,2.16,2.44,2.16,2.44,2.15,2.44,2.15L67,165l2.44,2.14,1.91,1.8,1.91,1.8,1.91,1.8,1.91,1.79L79,176.14l1.91,1.79,1.91,1.78,1.91,1.78L87.39,184,90,186.56l2.64,2.54,2.64,2.53,2.64,2.53,2.64,2.51,2.64,2.51,2.82,2.67v1.06l0.55,1.42,1.65,2.58,0.2,0.62h0l0.07,0.64,0.65,0.69,1.56,1,0.35,0.47v0.39l-0.4.42L109,212.51,108,213.65l-0.94,1.83,0.14,1.49,0,1.22-0.23,1-0.35.89-0.57.78-0.51.49-0.53.15-0.19,1.08,0.15,2,0.58,1.21,1,0.43,0.62,0.65,0.23,0.88-0.09.86-0.41.85-0.68.46-1.44.12h0l0,0.11-1.19.13-3,.26-3,.26-3,.26-3,.26-3,.26-3,.26-3,.26-3,.26,0-.08L79.73,231l-0.49-.47-0.62.3L78.34,229l0.15-.83-0.08-.81-0.58-2L76.29,223,73,220l-1.7-1-1.33-1.27-0.85-.35-1.06-.1-0.31.57-1.2-.4L66.69,216l-1.18-2-1-.22-2.42.13-3.23-1.09-1-.65L57.62,211l-1.51-1-2-1-1.11.23-1.46-.15-2.07-.72-1.21-.09-2.36.21L45,208.37l-0.82-.9L43.31,207l0.19-1.11-0.11-1,0.13-.78-0.4-1.73,0.31-1.6-0.26-.58-0.5-.44-1.57-.66-0.29-.83,0.25-1.15-0.41-.76-1.28-.71L38.2,194l-1.51-.88-0.62-1.48-0.94-.92L34.81,190l-2.07-2.9-2.22-2.27-0.34-1.31-0.09-1.79L31,180.59l0.47-1,0-.88-0.13-.65L30.5,177l-2.94-.67-2.39-2.8L25,171.34l-0.94-2.21V167.7l-0.14-1.56,0.72-.34,0.64,0.12-0.07.62,0.21,1.11,0.75,0.84,0.72,0.36,0.65,0.82L28,169.92,28.53,170l-0.26-.52L28,169.12,27.63,168,27,166.66l-0.76-.76-0.39-1.39-0.33-.32-0.21-.52,0.74-.62,1-.44,1.36-.12,3.84,0.21,0.82-.35,0.67,0.12,0.5,0-1-.36-0.58.12-0.68-.08-1.37.08L30,162l-0.62-.44-0.4,0-1.27.76-0.56-.09-1.33-.83-0.58-.11-0.94.47-0.11,2,0.29,1.51-0.56.15-0.65-.62-1-.38-0.83-.56-1.17-1.06-0.62-.39-0.69.88,0-.4,0.34-1-0.1-1.71,1,1.37-0.32-1-0.82-1.06-0.62-.36-0.78-1.9-1.75-1.15-1.4-1.85-2.87-3.08-0.19-2.71-1-3.44,0.44-2-0.06-1.39-0.51-2.11-0.53-1.15-2.33-3.15L5.2,133.19l-0.34-1.61L4.7,129.95l0.49-1.46L5.61,127l0.31-.41L6,126.72,5.95,127l0.32,0.1,0.12-.67,0.19-.35-0.33,0,0-.21,0.2-.43,0.69-2-0.07-2.55,0.74-3.14,0-1-0.47-2.24-0.47-1.35-0.85-1,0.37-1.4,0-1.33-0.18-.22H50v-0.1Zm1.22,104.17,2.12,0.64,1.14-.31,0.21,0.31-0.13.26-2.57.49-0.78-.34-0.07-.46-0.26-.44Zm-4.4.68-0.55,0-0.85-.13,0.3-.29,0.47-.21,0.15,0.15Zm2.74,1.31-0.73.18-0.55-.17-0.88-1.19,1.87-.15,0.81,0.52,0.11,0.14Zm17.6,6.62,0.53,0.92-0.75-.11-0.79.06-0.24-.5-0.23-.68-0.15-.18L65,221.31l0-.07-0.07-.33,0.15-.17,1.7,0.77ZM55.83,224l-0.46,0-0.64-.11-0.33-.66,0.52,0,0.49,0.09,0.39,0.52Zm11.29,4.81-0.61.11-0.67-.25-0.57-1.19-0.64-.93,0.34-.26,0.52,0.89,1.29,1.36Z" transform="translate(-0.78 0.56)"/>
      <path id="US-CO" class="cls-2" d="M236.62,136.49v39.66h-73V122.9h72.89v13.59Z" transform="translate(-0.78 0.56)"/>
      <path id="US-CT" class="cls-2" d="M550.41,108.93v6.83l0,0.56-0.06.86-0.26.33-0.13.79-0.9-.08-1.5.21-2,.46-1.1-.28-1.12.5-3.82.14-0.81-.26-1,.94-1.64.56-4.16,2.11-0.5.42-0.54-.86-0.42-.68,0.84-.54,0.65-.41,0.6-.37,0.4-.25-0.32-.53-0.31-.53,0.08-1.3,0.09-1.31,0.08-1.31,0.09-1.31,0.08-1.32,0.09-1.31,0.08-1.32,0.09-1.32,0.87,0,0.87,0,0.87,0,0.88,0,0.87,0,0.87,0,0.87,0,0.87,0V109l0.45,0,0.06-.31h1.25l1.24,0,1.25,0,1.24,0,1.25,0h1.24l1.25,0,1.24,0v0.14Z" transform="translate(-0.78 0.56)"/>
      <path id="US-DC" class="cls-2" d="M496.11,151.38l-0.23-.34-0.51-.28-0.21-.1,0.83-.9,0.55,0.79,0.61,0.85-0.93,1.08Z" transform="translate(-0.78 0.56)"/>
      <path id="US-DE" class="cls-2" d="M512.82,139l-0.45.47-0.39.85-0.89,1,0.07,0.69,0.15,0.49-0.08,1,0.56,1,1.11,1.62,0.21,2.51,0.85,1.68,1.3,2,1,0.55,0.06,0.73-0.46,1.19-0.62.55,0.79-.11,0.4,0.28,0.39,1,0,0.63h-6.95l-0.1-2.1-0.1-2.1-0.1-2.11-0.11-2.11-0.1-2.12-0.1-2.12-0.1-2.12-0.1-2.13,0.78-1.08,0.33-.33,0.44-.17,1.29-.06Z" transform="translate(-0.78 0.56)"/>
      <path id="US-FL" class="cls-2" d="M449.67,254.25l0.49,1.09,0.74,4.44,0.51,1.54,0.92,4.15,1.5,4,2.13,4.82,3.49,5.81,0.42,0.83-0.45.71-0.14.73,0,1.09,0.12,1.06,0.41,1.3,0.79,2-0.44-.4-1.15-2.85-0.13-1.68,0.17-2.38-0.26.06-0.22.77-0.12.9-0.29.35-0.4-1.39,0-.63,0.42-.73-0.12-.26-0.68-.38-0.14-.58,0.09-.58-0.39-.31h-0.31l0.21,1.43,0.32,0.88,0.4,2.11,0.65,1.28,0.38,1.07,4.4,11.36,1,1.44,0.39,1,0.4,2.16,0.09,2.77-0.72,5L464,311.74l-0.1-.1-0.07-.36-0.17,0L463,312.8l-0.85,1.41-0.28,2.19-0.41,1.09-1.22,1.16-0.76,0-1.85.87-1.3-.22-1.56.49-1-.06-0.6-1,0.09-.46,0.23-.46,0.4-.11,1.38,1.08,0.25-.45-0.42-.54-0.79-.3-0.58-.33-1.18-2.47-1.22-1.7-0.21-1.14-2.11-.69-1.53-1-1-1.87-0.57-3.33-0.67-.38-0.29-.25L445.6,303l0.69-1-0.55.25-0.41.39-0.52.92-0.38.14-0.34-.14-0.4-1.75,0.11-2.16,0.56-.81-0.86,0-0.88.31,0.13,0.73-0.12.4-0.65-.1-0.49-.25-0.66-.75-0.9-1.43-1.86-4-0.36-.56-0.62-.58,0.29-.18,0.53-.11,1.19-1.79,0.94-1.08,0.31-.75-0.06-.32-0.42-.46-0.54.41-0.23-.11-0.62-.94-0.58-.26-0.41.21,0.43,0.77,0.39,0.29-0.15,1.12-0.15.36-0.36.32-0.56-.17-0.29.28-0.34-.29-0.33-.5-0.38-.81,1-4.58,0.92-2.92,0.11-3.34,0.07-.5-0.08-.89-1.22-1.94-5.4-4.74L426.93,264l-3.63-2.12-2.76.46-0.47.43-0.21.56L420,264l-0.25.26-0.74,0-1,.14-2.6,1.49-0.92-.06-0.84.39-0.62.29-1.63.15-1.38.33-0.6-.18-0.39-.86V265l0.32,0.68,0.49,0.53,0.22-.21,0.09-.47-0.49-.93-1.57-1.19-1.78-1.74,0.54,0.06,0.13-.38-0.55-.49,0.23-.56,0.39-.6-0.75.09-0.67.42,0,0.52-0.13.41-0.36-.06-0.67-.51-3.32-1.41-2.9-.79,2.23-.35,1.21,0.28-0.14-.43-0.29-.28-0.95-.34-1.21.13-0.76-.17-0.78.34-0.86.51-0.76.26-3,.36-2.43.4,0.39-.42,0.42-.26,1.43-.41,0.21-.85-0.34-.82-0.38.2-0.4.64-0.49-.46h-0.54l-0.14,1-0.68.68-0.31.68-2,.54-0.25-.18,0.6-.65,0-.36-0.43.2,0.1-.41,0.36-.38,0.17-.42,0-.82,0.26-1.15-0.13-.36-1.5-1.49-0.36-.78-0.07-.83,0.14-.86h26.84l0.43,0.95,0.83,2,0,0.46,1,0.07,1.65,0.11,1.65,0.11,1.65,0.11,1.65,0.11,1.65,0.11,1.65,0.11,1.65,0.11,1.65,0.11,1.65,0.11,1.65,0.11,1.65,0.11,1.65,0.11,1.65,0.11,1.65,0.11,1.65,0.11,1.65,0.11v0.4l0.28,0.62,0.07,0.71,0.12,0.34,0.33,0.21,0.52,0.06,0.53-.4,0.33-.87,0.09-1-0.2-1.12,0-.95,0.26-.55,0.31-.13,0.26-.3,0.22-.07,0.57,0.15,2.15,0.79h1.71Zm-35.34,13-1,.43-1.12-.31,0.71-.06,0.51,0.12,1.28-.62,0.67-.46,0.78-.18Zm49,27.77,0.17,0.86-1-2-1.18-3.12-0.63-2.42,0.43,0.65,0.42,1.36Zm-19.7,8.42v0.67L443.12,303l-0.34-1.26,0.5,0.41Zm0.49,1.14-0.38.3-0.75-.22-0.41-.4-0.18-.77,0.65,0.82,0.23,0.19Zm17.18,15-2.06,2.14,0.23-.54,0.81-1.15,0.26-.54,0.54-.34,0.51-.62,0-.72,0.74-.51,0.24-.07Zm-2.66,2.72-0.28.06,0.41-.49,0.11,0Zm-2,1.14h-0.2l0.1-.17L457,323l0.15,0.12,0,0.17Zm-2.23,1-0.47.26-0.49-.2,0.54-.26,1.61-.29-0.61.36Zm-3,.76-0.31.23L451,325.4v-0.34l-0.44-.75,0-.2,1,0.74,0,0.2Zm-2.4.57-0.67.11,0.54-.44,0.18-.67,0.32,0.53v0.32Zm-2.25.63-0.26,0,0-.18,0.45-.21h0.3v0.24Z" transform="translate(-0.78 0.56)"/>
      <path id="US-GA" class="cls-2" d="M456.23,238.54l-0.53,1-1.27.64-0.39,0-0.32.19,0.19,0.46,0.32,0.33v0.31l-0.33.42-0.66.12-0.38.49L453,243l0.22,0.25,0,0.44-0.75.44-0.18.43,0.38,0.12,0.29-.12,0.21,0.09-0.45.72-0.41.44-0.39.78-0.89.22,0,0.25,0.51,0.22,0.42,0.61L451.13,249l-0.5-.09-0.3-.24-0.19.88,0.08,0.46-0.19,1-0.31,1.15-0.21.47,0,0.88,0.13,0.85-1.75-.11-2.15-.79-0.57-.15-0.22.07-0.26.3-0.31.13-0.26.55,0,0.95,0.2,1.12-0.08,1-0.33.88-0.53.4-0.55-.11-0.33-.21-0.12-.34-0.07-.71-0.28-.62v-0.4l-1.65-.11-1.65-.11-1.65-.11-1.65-.11-1.65-.11-1.65-.11-1.65-.11-1.65-.11-1.65-.11-1.65-.11-1.65-.11-1.65-.11-1.65-.11-1.65-.11-1.65-.11-1.65-.11-1-.07,0-.46-0.83-2L413.3,251l-0.63-1.4-0.26-2.15,0.4-3.35-0.12-.76h0l-0.6-1.72v-1.26l0.62-2.07h0l0.31-1.17,0.43-.66,0.66-.55,0.09-.49-0.49-.42-0.18-.51,0.12-.6-0.43-1.43-1.47-3.41-0.21-1.16-0.25-.72L411,225.64l-0.28-1.58-0.28-1.58-0.28-1.58-0.28-1.59-0.28-1.59-0.28-1.59-0.28-1.59L408.82,213l-0.28-1.6-0.28-1.6-0.28-1.6-0.28-1.6L407.44,205l-0.28-1.61-0.28-1.61,3.37,0,3.37,0,3.37,0,3.37,0,3.14,0,3.14,0,3.14,0,3.14,0h-0.07l-0.51.85-1.52,1.6-0.41,1.22,2,1.37h0l1.17,1.1,0.81,0.43,0.82,0.13,0.51,0.36,0.3,0.89h0l2.38,4.36h0l2.47,2.24,1,1.1,0.5,1.07,2.11,1.74,0.72,0.94,0,0.72,0.25,0.51,0.46,0.3,0.44,0.64,0.43,1,0.84,0.85,1.26,0.72,0.92,1.64,0.58,2.55,0.6,1.48,0.9,0.62,1.24,2.17,0.4,1.29,0,1.14,0.63,0.88Zm-5.68,12.82-0.46,2.93-0.2-1,0-1,0.35-.6Z" transform="translate(-0.78 0.56)"/>
      <path id="US-IA" class="cls-2" d="M354.71,101.92l0.63,1,1.09,0.86,0.62,0.81,0.15,0.75,0.66,0.81L359,107l0.68,0.75,0.19,0.65,0,1-0.25,1.36-0.43,1-0.61.6-0.44.84-0.3,1.08-0.93,1-1.56.92-1.74.62-1.91.33-1.14.78-0.35,1.22,0.15,1,0.68,0.82,0.39,0.87,0.1,0.92-0.47,1.52L350,126.33l-1.18,1.37-1.28.62-0.57.92,0.14,1.21-0.11.68-0.53.24-0.92-.72-0.17-.51-0.74-.51-0.11-.32L344,129l-0.52-1-2.61,0h-2.62l-2.61,0-2.62,0-2.61,0-2.61,0h-2.62l-2.61,0-2.62,0-2.61,0h-2.62l-2.61,0-2.62,0-2.61,0-2.62,0H301.6l-0.63-1-0.34-.94,0.22-.45,0-1.52-0.12-2.61-0.25-1.48-0.38-.33,0-.46,0.29-.57-0.09-.4-0.46-.21-0.13-.5,0.17-.81-0.11-.49-0.4-.18-0.15-.28,0.07-.37-0.22-.23-0.49-.11-0.2-.9,0.09-1.71-0.18-1.2-0.46-.72-0.24-.66v-0.63l-0.49-1-1-1.35-0.63-1.78-0.29-2.21L294.49,102l-0.32-.07-0.25-1.16-0.29-.52-0.06-.4-0.86-1-0.06-.39,0.11-.49,0.56-.95,0.51-1.56,0.12-1,0.41-.79V93.23l-0.08-.57-0.22-.51-0.68-.36-0.08-.17L293.25,91l0.28-.36,0.09-.41-0.08-.51-0.41-.87L293,88l1.5-.06h54.08l0.08,0.89,0.2,0.64L349.23,90l0.64,0.39,0.1,0.76-0.42,1.11-0.14,1.38,0.13,1.64,0.32,1.48,0.5,1.31,1.15,1,1.78,0.62,1,0.93,0.31,1.27Z" transform="translate(-0.78 0.56)"/>
      <path id="US-ID" class="cls-2" d="M142.9,73.6v35.48H81V83.48l0.66-2.16,0.13-1.06-0.17-.6,0.11-.57,0.4-.55V77.94l-0.42-.66-0.79-.44-1.15-.21-0.6-.78,0-1.33,0.86-2.06,1.76-2.79,1-2,0.18-1.17,1.06-2.69,2-4.24,0.75-2.72-0.45-1.19-1-1.15-1.53-1.09L82.5,52.15l-0.29-.65-0.35-.81-0.18-1,0.26-.58-0.22-1L81,46.6l-0.3-1,0.07-.35,0.08-.14V8.18l0-2.51H91V21.1l1.11,1.56L93,23.61l0.53,1,0.81,1.07,0.15,0.39,0.29,1.15-0.21.84L95,28.91l-0.08.41-0.32.22-0.07.07v0.09l0.11,0.13,1.14,0.81,1.11,1.12,1.41,0.77L98.72,33l1.86,2.23,1,1.42,1,1,0.51,1.18,1,1,0.26,0.53,0.07,0.11,0.14,0,0.65-.25,0.17,0.07,0.32,0.41,0.07,0.62L106,41.64l0.4,0.14,0.46,0,1.42-.3h0.31l0.15,0.12L108.86,42l0,0.54-0.14.77-0.43.76,0.08,0.71L108,46.4l-0.32,1.09,0,1.06-0.4.62,0.22,0.73L107.32,51l0.14,0.29L108,51.8l0.2,1.36-0.09.25-0.9.53-0.31.34-0.12.5,0.4,1.42-0.39.78,0,0.67,0.09,0.18,0.84,0.36,1,0.79L109,59.16l0.23,0,0.43-.26,0.47-.54,1-.55,1.15-1.17,0.06-.33,0.09-.18h0.15l0.36,0.15L113.6,57l0.63,0.4,0.11,0.09,0.06,0.2,0,0.71,0.35,0.55,0.1,0.92,0.36,0.9,0.25,1.09,0.94,1.41,0.51,1,0.56,0.46,0.34,0.53L118,65.87l0.1,0.52-0.33.94,0.09,0.39,0.3,0.43,1,1,0.2,0.08,0.89-.1,0.49,0.17,0.49,0.47,0.49,0.74L122,71.19l0.09,0.87,0.5,1,0.07,0.85L123,74.24l0.62,0.51,0.6,0.31,0.23,0,0.17-.13,0.06-.46,0.24-.36,0.74-.51h0.69L129,74l0.18,0,0.12-.14,0.45-.77,0.36-.31,0.56-.1,1.63,0.2,1.89-.11,1,0.22,1.43-.29,1.65,0.21,0.22-.12,0-.17-0.14-.29,0-.57,0.33-.68,0.11-.58,0.34-.33,0.44-.18,0.36,0,0.35,0.31,0.4,0.52,0.71,1.41,0.38,0.51,0.45,0.44Z" transform="translate(-0.78 0.56)"/>
      <path id="US-IL" class="cls-2" d="M384.18,102.16v2.18l0.17,1.81,0.31,0.81,0.36,0.6,0.39,0.37,0.45,1.17,0.52,2,0.46,1.29,0.38,0.53,0,3.69v8.24l0,4.09V137l0,4v3.86l-0.49.41-0.33.71,0.09,0.76-0.13.54-0.33.33,0.17,0.83,0.65,1.32,0.4,1.31,0.13,1.29-0.12.92-0.56.84L386,156l-0.46.73-0.57.23-0.51.67-0.44,1.1-0.47.53-0.51,0-0.37.21-0.24.43,0,0.45,0.3,0.49-0.1.44-0.5.41v0.2l0.15,0.12-0.06.19-0.32.2-0.19.61,0,1-0.18.51-0.33,0,0,0.28,0.55,1.14-0.32.23-0.57.94-0.12,1,0.34,1.12-0.86.92-2.06.69-1.1.61L377,172l0.14,0.81,0.41,1.08,0.08,0.75-0.26.42-1.48-.29-2.68-1-1.81,0-0.92,1-0.32.79,0.11,0.64-0.73-.78-0.5-.35-0.09,0-0.11.1,0,0.24,0,0.18,0.07,0.2,0,0.13h-0.12l-0.53-.3-0.64-.87-0.76-1.43-0.17-1.14,0.43-.85v-0.88l-0.43-.94-0.21-.92v-0.89l-1-1.35-2.07-1.79-1.52-1.11-1-.42-1.14-.89-1.3-1.38-0.69-1.06-0.09-.73,0.6-2,1.72-4.28,0.2-.5,0.06-.19-0.08-.19-0.17-.18-0.73-.51-1.39-.43-1.29-.23-1,.51-0.89-1-0.77-2.59-1.89-2.74-3-2.89-1.75-2-0.49-1-0.43-1.57-0.35-2.1v-1.73l0.61-2.08,0.53-.24,0.11-.68L347,129.23l0.57-.92,1.28-.62,1.18-1.37,1.06-2.12,0.47-1.52-0.1-.92-0.39-.87-0.68-.82-0.15-1,0.35-1.22,1.14-.78,1.91-.33,1.74-.62,1.56-.92,0.93-1,0.3-1.08,0.44-.84,0.61-.6,0.43-1,0.25-1.36,0-1-0.19-.65L359,107l-1.18-.85-0.66-.81-0.15-.75-0.62-.81-1.09-.86-0.63-1,4.76,0,4.68,0,4.68,0,4.68,0,4.68,0,4.68,0h1.32Z" transform="translate(-0.78 0.56)"/>
      <path id="US-IN" class="cls-2" d="M415.49,113.24l0,4.5,0,4.48,0,4.44,0,4.43,0,4.41,0,4.38,0,4.37v4.43l-0.17.12-0.24.57,0.26,0.58v0.47l-0.29.36,0.1,0.26,0.49,0.18,0.19,0.42-0.11.65-1,.66-2,.74-0.43.21-0.36.1-0.17,0h0l-0.26-.14-0.36-.3-0.63-.14-1,.1-0.41.62,0.21,1.15-0.35.88-0.9.61-0.65.81-0.39,1-0.63.61-0.85.21-0.69.93L404,161.93l-0.58,1-0.62.4-0.86-.1-1.08-.6-0.62-.6-0.17-.63-0.32-.44-0.3-.2h-0.2v0.09l0.09,0.18-0.11.19-0.67.07-0.29.25,0.1,0.45-0.15.31-0.39.19-0.21.43,0,0.67-0.28.62-0.52.55-0.77-.19-1-.93-1-.22-1,.51-0.77.67-0.52.85-0.49.21-0.72-.64-1.69-.9-0.88-.19-0.64.21-0.44-.1-0.15-.24-0.12-.1-0.12.12v0.78l-0.15.5-0.29.2-0.22-.15-0.15-.54-0.36-.18-0.57.19-0.58-.08-0.51-.32-0.19,0-0.13.15,0,0.61-0.11.5-0.26.31-0.38.08-0.49-.17-0.22.15-0.55-1.14,0-.28,0.33,0,0.18-.51,0-1,0.19-.61,0.32-.2,0.06-.19-0.15-.12v-0.2l0.5-.41,0.1-.44-0.3-.49,0-.45,0.24-.43,0.37-.21,0.51,0,0.47-.53,0.44-1.1,0.51-.67,0.57-.23L386,156l0.54-1.81,0.56-.84,0.12-.92-0.13-1.29-0.4-1.31-0.65-1.32-0.17-.83,0.33-.33,0.13-.54-0.09-.76,0.33-.71,0.49-.41v-3.86l0-4V128.9l0-4.09v-8.24l0-3.69,0.07,0.1,0.39,0.35,0.32,0.2,0.22,0,0.13,0.31,0.58,0.18,1.07,0.08,1-.11,0.89-.32,2.18-1.27h21.45v0.81Z" transform="translate(-0.78 0.56)"/>
      <path id="US-KS" class="cls-2" d="M313.52,176.15H236.74V136.49h69.33l2.39,1.74,0.63,0,0.75-.28,0.55,0.4,0.39,1.08-0.06.54-0.49,0-0.62.65-0.73,1.26,0.18,1.19,1.09,1.1,0.73,1.11,0.36,1.12,0.73,0.87,1.61,0.93,0,0.51v27.39Z" transform="translate(-0.78 0.56)"/>
      <path id="US-KY" class="cls-2" d="M438.16,157.22l0.24,0.36,0.11,2-0.07.39-0.35.81,0,0.42,0.3,0.66,1.1,1.52,0.11,0.6,0.44,0.58,0.38,0.86,1.18,1.84,1.83,1.52,1.43,0.41L441,172.31l-1.8,1.15-1.71.92-0.13.15-0.39,1-1,.89-0.65.94-1.54.78-1.1,1.07-2.77,1-1.54.36-1,.62-0.08,0-0.08,0-0.08,0-0.08,0-0.08,0-0.08,0-0.08,0-0.08,0L423,181.4l-3.61-.12-3.61-.12-3.61-.12-3.61-.12-3.61-.12-3.61-.12-3.61-.12-3.45.07-3.45.07-3.45.07-3.45.07-0.31-.4-0.9-.09-1.4-.14h-0.06l0.41,1.32v1.15l0,0H367.22l0.55-1.12,0.49-.3,0.22-.06,0.53,0.21,0.25,0.08,0.55-.4,0.49-1.16,0.28-1.24,0.08-1.3-0.33-1-0.11-.64,0.32-.79,0.92-1,1.8,0,2.69,1,1.48,0.29,0.26-.42-0.08-.75-0.41-1.08-0.14-.81,0.12-.53,1.09-.62,2.06-.69,0.86-.9-0.34-1.12,0.12-1,0.57-.94,0.32-.23,0.21-.15,0.49,0.17,0.38-.08,0.26-.31,0.11-.49,0-.62,0.14-.14,0.19,0,0.51,0.32,0.57,0.08,0.57-.19,0.36,0.18,0.15,0.54,0.22,0.17,0.29-.21,0.15-.5v-0.78l0.12-.12,0.12,0.1,0.15,0.24,0.44,0.1,0.64-.22,0.88,0.19,1.7,0.9,0.71,0.65,0.5-.21,0.51-.85,0.78-.67,1-.5,1,0.21,1,0.93,0.77,0.19,0.53-.55,0.28-.62,0-.67,0.21-.43,0.39-.19,0.14-.32-0.09-.45,0.29-.25,0.67-.07,0.11-.19L399.3,161v-0.09h0.2l0.3,0.2,0.32,0.44,0.17,0.62,0.62,0.61,1.08,0.58,0.85,0.1,0.63-.39,0.57-1,0.53-1.63,0.69-.93,0.85-.21,0.62-.61,0.39-1,0.65-.81,0.92-.61,0.35-.88-0.21-1.15,0.41-.62,1-.1,0.63,0.13,0.36,0.31,0.26,0.14h0l0.17,0L412,154l0.43-.21,2-.74,1-.66,0.11-.65-0.19-.41-0.49-.18-0.1-.26,0.29-.36v-0.47l-0.26-.58,0.24-.57,0.17-.12,0.58-.44,0.62-.06,0.49,0.46,0.68,0.11,0.89-.23,0.82,0.15,0.75,0.55,0.71,1,0.66,1.46,1.18,0.89,1.71,0.32,1.25,0.57,0.78,0.82,0.65,0.26,0.76-.44,0.81-.22,0.81,0.28,1.08,0.69,1.6-.15,2.11-1,1.25,0.06,0.38,1.09,0.89,1.15,1.42,1.19v-0.11Zm-71.37,25.34-0.73,0,0-.15,0-.35,0.07-.15,0.14,0h0.17l0.23,0.33Z" transform="translate(-0.78 0.56)"/>
      <path id="US-LA" class="cls-2" d="M366.43,260.71l-0.71.32-3.79-1.22-0.95-1-0.84-.21-1-.12-1.1,1.21-0.84,1.64,1.33,0.89,1.14,0.43,1.89-.36,1-.79,0.85,0,0.41-.17,0.38-.42,0.73,0.33,0,0.33-0.52.46-0.65.39-0.4.46,0.74,0.93,1.17,0.31,0.44-.13,0.28-1,0.72-.67,1,0.14-0.13.42,0.13,0.4,0.45,0.67-0.06,1,0.09,0.23-1,.43-0.78.14-0.63.56,0.33,0.32-0.64.29-0.43-.11-0.22.11-0.07.34-0.33.32,0.47,1,1,0.63,0.69,0.78,2.78,1,0.67,0,0.66,1,0.53,0.35,0.52,0.18-0.06.72-0.92.52-0.24.62-0.23.35-0.41-.44-0.42-.32-1,1-0.47.21,0.23-1-0.38-.41-0.56-1.06-0.82-.65-0.57-.21-0.45-.41-0.54-.17-0.46,0-0.78-.24-0.06-.56-0.22-.42-0.62-.5-2.92-.94,0,0.39,0.2,0.3,0.42,0.2,0.51,0.38v1.12l-0.22.47-0.09.67-0.19.68-0.35.54-0.79.36-0.35-.31-0.57-1.48-0.81-.46-1.28-.06-0.87.33-0.95,1.43-0.76.23-2.61-.74-3-1.12,0.08-.38,0.47-.12,0.9,0.15,0-.39-0.92-1.27-0.17-.57,0.12-.69h-0.3l-0.55.58-1.9-.5-0.53-.6L344.14,266l-1.58-.06-0.72-1-1.29.43-0.65.47-0.57.73,0.22,0.38,0.57,0.6-0.26.29-1.83.43-4.26-.47-1.25-.44-1.68-.95-2.32-.77-1.11-.12-1.09.15-3.18.08-0.74.21-0.63.33-0.41-.36-0.19-.65,0.38-.11,0.41-.38,0.38-.75,0-.45-0.25-.3,0.69-1.19,0.17-.43-0.11-2-0.31-.74,0-.43,0.33-1.11-0.06-1,0.57-1.22,0.42-.64,0.47-1.31,0.11-.85,0.2-.64-0.14-.68,0.33-.5-0.22-.69-0.07-.92-0.41-.35-0.72-1.37,0-.61-0.75-1.28v-0.44L322,244.2l-0.14-.43L321.79,242l-0.2-.52-0.62-1L319.54,239v-12.4h30l0.06,0.61,0.5,0.36,0,0.65-0.44.94v0.65l0.45,0.36,0,0.39-0.5.41-0.08.44,0.35,0.47,0.15,0.55,0,0.62,0.46,0.82,0.72,0.53,0.47,0.62,0,0.34,0,0.31-0.1.45-0.58.66-0.45.49-0.28.18-0.14.33,0,0.72-0.66.92-1.35,1.06-0.89,1.35-0.44,1.62-0.46,1-0.49.44-0.24.85V247l-0.31.69-0.62.13-0.13.72,0.35,1.3-0.15.54-0.43.43,0,0.33h19.93l-0.31,1.39-0.73,1.86,0,0.49,0.19,0.61v0.34l0.28,0.51,0.6,0.51,0.53,0.76,0.46,1.37,0.12,0.63,0.39,0.87,0.2,0.17,0.29,0.1h0.25Zm3.09,1.29,0,0.55-0.51-.28-0.75,0,0.33-.19,0.23-.19,0.12-.2,0.95-.69-0.26.51Zm4.11,3.3-0.29.38,0.29-1.82-0.41-1.53,0.43,0.67,0.14,0.79ZM373,266.42l-0.56.62,0-.23,0.42-.62,0.3-.24Zm-30.15,2.53-0.39.17-1.72-1-0.11-.44,0.85-.4,0.52,0,0.82,0.52,0.3,0.14,0.14,0.21-0.08.33Z" transform="translate(-0.78 0.56)"/>
      <path id="US-MA" class="cls-2" d="M560.73,96.81l-0.24.73,0.3,0.73L561,99l0.47,0.73,0.41,0.07,0.44-.13,0.32,0,0.21,0.31-0.09.38-0.51.1-0.94.65-0.83.25-0.41.78-0.62.9-1.2,1.41,0.52,0.44,1.85,0.49,0.83,0.51,1.26,2.62-0.29.26-0.11.49,1.11,0.67,0.35,1.87,0.92,0.64,1.37,0.4,1.67-.56,1.39-.78,0-.64-0.87-1.49-0.21-.71-0.65-.45-0.24.39-0.42-.5,0-.29,0.39-.13,0.45,0.06L568,108l1.36,1.63,0.38,2.13,0.08,1.36-0.15.46-0.4-.1-0.76.09-3.58.69-0.79.62-1.82.66-0.11-.33,0.13-.68-0.11-1.41-0.36-.07L559,115.4l-1.09.14-0.92.67-0.21-.38-0.17-1.72,0.57-1.44-0.31,0-0.57.52L556,112.6l-0.39-.33-0.38-.32v-0.52l0-.78-0.43-.15,0-1,0-.63h-1.42l-1,0-1.07,0h-0.78v-0.15l-1.24,0-1.24,0-1.24,0-1.24,0-1.24,0-1.24,0-1.24,0-1.24,0-0.06.32L540,109v-0.36l-0.87,0-0.87,0-0.87,0-0.87,0-0.87,0-0.87,0-0.87,0-0.87,0-0.28-.34,0.33-1.17,0.33-1.17,0.33-1.17,0.33-1.18,0.33-1.18,0.33-1.18,0.33-1.18,0.33-1.18,1,0,1,0,1,0,1,0,1,0,1,0,1,0,1,0,1.48,0,1.48,0.06,1.48,0,1.48,0.06,1.48,0,1.48,0.06,1.48,0,1.48,0.06,0.9-.39,1.07-1.1,0.65-.24,1.06-.66,0.53-.14Zm3.08,20.93-2.86.67L560.5,118l0.72-.2,0.9-1,0.6-.12,0.94,0.58Zm5.53,1.52-0.81.22-1.85-.51,1.52-.43,0.25-.15,0.2-.63,0-.32,0.57,1.36Z" transform="translate(-0.78 0.56)"/>
      <path id="US-MD" class="cls-2" d="M509.05,140.25l0.1,2.13,0.1,2.12,0.1,2.12,0.1,2.12,0.1,2.11,0.1,2.11,0.1,2.1,0.1,2.1h6.95v0.39l-0.13.57-0.24.23v-0.58l-0.17-.2-0.28.25-0.18.29-0.08,1.14-0.19.57-0.67.17-0.68,1.49-0.64.85-0.23.53-1,.13-1.57.21-0.41.6-0.78-.25-1.2,0,0.23-.81L509,162l-0.63-.71-0.38-.09-0.39-.29,0.45-.58,0.22-.62-0.13-.76,0.19-.57-0.31.09-0.51.61-0.31.24-0.19-.53-0.22.12-0.14.36-0.32.2-0.67-.5-1-.57-0.55-1-0.31-.77,0.32-1.39,0.68-.24,0.88,0.23h1.17l-0.17-.31-0.42.06L505,153.87l-0.4-.68L504,153l-0.31.66-0.34.18,0.43-1.44,0.55-.06,0.82-.4-0.24-.84-0.52-.36-0.94.46v-0.58l0.18-.75h0.71l0.62,0.24,0.53-1.21,0-.54-0.87.79-0.2-1.71,0.86-1.64,0.82-.72,1,0,1-.12-0.65-.3-0.67-.17,0.51-.65,0.43-.12,0.42-.57-1,.09,0.12-1.08-0.5.22-0.58.1L506,143l0,0.76-0.17.5-0.45.4-0.77.31-0.08-.54-0.25-.24-0.1,1.16-0.2.4-0.56-1.08-0.17.22,0,0.31-0.14.53-0.49.28,0,0.68-0.19.38-1.56-.6,0,0.2,0.88,1.28,0.64,0.44,0.08,0.69-0.55.57-0.76-.5-0.13,0,0.41,0.85,0.26,0.75-0.26.62,0,0.76-0.06.69-0.17.61,0.38,2.79,0.44,0.76,0.44,0.73,0.23,0.67-0.46.1-0.74-.55-0.65-.42-0.77-1.36L500,155.6l-0.19-.43,0.09,1,0.28,1.1,2.42,2.46,0.45,0.94,0.34,0.74-0.09.71-0.63-.5-0.54-.64-1.44-.72-1.82-.45-1-1.68v0.71l-0.23.6-0.63-.73-0.4-.62-0.13-.67-0.78,0-0.82.58-0.79-.14L494,156.74l0.21-.61,0.89-1.44,0.84-.74,0.38-.95-0.12-1.48,0.11,1.1,0.92-1.08-0.6-.85-0.55-.79-0.83.9-0.71-.34-1.15-1.12-1.86-.79-0.26-.4,0-.44,0.25-.61-0.57-.6-1.4-.58-0.61-.5-0.13-.11-0.06-.62-0.18-.39-0.31-.17-0.06-.26,0.19-.36-0.19-.39-0.57-.42-0.2-.36,0.18-.32-0.29-.14-0.75,0-0.74-.3-0.73-.63-0.86-.11-1.5.63-0.85.15-0.38.35-0.19.61-0.36.31h-0.83l-0.13,0-0.94-.2-0.66-.38-0.12-.15,0.08-.32-0.12-.14-0.2,0-0.19.19-0.2.57L476.08,144l-0.78-.31H475l-2.27,2.21-0.68.35-1.33,1,0-1.71,0-1.71,0-1.72,0-1.72h38.24v-0.17Zm5.8,22.34-0.28,0,0.28-.45,0.92-2.21,0.41-.76-0.4,1.54-0.69,1.42Z" transform="translate(-0.78 0.56)"/>
      <path id="US-ME" class="cls-2" d="M578.93,32L579,32.33l0.47,0.57,0.68,0.39,0.52,0.13h0.61l1.67-.76,2-.5,1.08-.46,0.2-.43,0.49-.15,0.78,0.13,1.44,1.08L590.56,34l1.33,1.29,0,2.23,0,2.36,0,2.48,0,1.76,0,2.42,0,1.92,0,2.49,0,1.33,0.19,0.39-0.11.53,0,0.26v0.21l0.08,0.26v0.36l-0.17.33L592,55l0,0.63L592.14,56l0.31,0.23h0.25L593,56.45l0.43,0.4,0.65,0.34,0.67,0.12,0.46-.09,0.56,0.23L596,58l-0.11.52-0.32.24-0.34.19-0.06.4,0.17,0.42,0.24,0.36,0.26,0.64-0.11.55-0.24.46-0.11.49,0.21,0.42,0.55,0.55,0.34,0.53,0.54,0.3,0.25-.21,0.21-.28,0.22-.21,0.37,0.12,0.44,0.15L599,63.84l-0.06.45,0.3,0.75,0.23,1.44-0.34.65L599.24,68l1,0.25,0.23,0.26,0,0.32-2.12,2.22-1.8-.31-1,.58-1,.18-0.44,1-0.56.21-0.76-.06-0.66-.28-0.51.13-0.71,1.78-0.57-.15-0.23.64-0.3.28-0.44.24L589,74.51l-0.24-.75-0.36-.17-0.47-.19h-0.5l-0.33.11-0.41.49-0.6.42-0.44-.34-0.35-.56-0.3.89-0.43.95,0.08,1.1-0.19.65L584,76.94l-0.41-.57-1.16-.46-0.92,0,0.19-.62,0.87-.88-0.26-.18-0.43.12-0.19-.12,0.31-.81,0-.88-0.39.31-0.49.94-1.18.74,0.06,1.25L579,78.35l-0.06,1.08-0.72.86-0.93.74-1.22-.21-0.94.64-0.47.74-0.41.11L574,81.38l-0.15-.29-0.34,1.38-0.35.09-0.13-1-0.17-.65-0.49.56L572.06,83l-0.33-.12-0.11-.55-0.24-.17-0.08.63,0.12,0.88-0.18.47-0.33-.25-0.33-.42-0.55.32-0.51.13V83.46l0.1-.53-1,.3-1.21,1-0.94,1.36,0.33,0.22,0.36,0.43-1.63,2.08-1.68,1.87-1.27,3-0.51.35-0.44.56-0.83-1.32-0.17-1.07-0.94-1.27-0.38-.87-0.12-1,0.06-1.06L559.19,86l-0.08-1.59L559,82.8,559,81.21l-0.08-1.6L558.8,78l-0.08-1.6-0.08-1.6-0.08-1.61-0.08-1.61L558.42,70l-0.08-1.62-0.08-1.62-0.08-1.62-0.08-1.62L558,62l0.25-.22,0.63-.41,0.41,0.07,0.35,0.63,0.3,0.42,0.34-.12,0.3-.58V61l0.4-.57,0.47-.09,0.44,0,0.22-.28,0-.4L562,59.05l0.06-.77,1.1-1.37,1.35-.93,0.47-.46,0.13-.95,0.77-1,0.39-.56,0.1-.5-0.2-.61,0-1.16,0.26-1.38,0.32-1.51,0.72-1.36L568.62,45l0.3-2L569.24,41l1.41-2,1.6-2.31,0.92-1.31L574.81,33,576,31.25l0.58-.78,0.62-.94,1,0.28,1,0.28L579,31.44Zm9,44-0.61.29-0.66-.12v0.76l-0.08.28-0.73-.39-0.26-.25,0-1,0.65-1,0.5-.37,0.64,0.26,0.49,1.07Zm-4.53,2-0.4.29-0.42-.09V77.46l0.13-.24,0.14-.11,0.22,0.2Z" transform="translate(-0.78 0.56)"/>
      <path id="US-MI" class="cls-2" d="M372.31,22.32l-0.06.25,0.38,0.08-0.07.13-0.41.23-1.16.47-0.78.15-0.4-.17,0-.32,0.32-.46V22.46h-0.32l0.08-.19,0.47-.36,4.06-2.34,1.73-.85,0.93-.26,0.15,0.13-1,.88-0.17.36,0,0.24-0.33.46-3,1.63Zm7.61,11-0.19.5,0,0.3-1.26,1.3-0.45.83-0.39.13-0.31-.56V35.33l0.31-.34L378,34.5l0-.67-0.12-.24-0.39.61,0.21,0.13,0.07,0.1-0.08.22-1.44-.32-0.44-.47,0.07-.65,0.49-.84,1.74-1.78,0.77-.5,2.18-.78,1.2-.18h1.21l0.87,0.25,0.54,0.52-0.52.34-2.39.29-0.07.1,0.45,0.29,0.09,0.2-0.42.52ZM420,44l0.32,0.2,0.22,0.33,0.54,0.93,0.26,0.63L421.55,47l0.11,0.31v0.54l-0.36.36-0.1.29,0.22,0.29,1.22,0.08,0.56,0.29,0.21,0.32-0.14.35,0.08,0.37,0.3,0.4,1,0.61,0.24,0.29-0.07.31-0.3.2-0.52.09-3.76-.57-1.1-.09-0.17.21-0.11,0-0.18-.06h-0.32l-0.17-.13L418,51.08l-0.33-.24-0.52-.11-0.45.29-0.52,1.12,0.08,0.21-0.09.73,0.13,0.2v0.17l-0.14.13-0.31,0-0.46-.18-1.76-1.71-1.33-.85-1.65-.63-1.31-.31-1,0-0.79.44L407,51.2l-1,.49-1.31.12L404,52l-0.11.34h-0.47l-0.84-.33L401.69,52l-0.89.14-0.65.34-0.68,1.06-0.13.52-0.5.45-1.32.71-0.07.26-0.69.81-0.22.44v0.43l-0.23,0-0.47-.49,0-.65,0.43-.82,0.39-.4,0.34,0,0.21-.36,0.08-.75-0.12-.37-0.66.15-0.34.3-0.44.07-0.53-.17-0.46.41-0.41,1-0.49.65-0.56.31-0.38-.34-0.19-1V53.91L392.9,53l-0.12-.19-0.23.3-0.35.78-0.47,1.71-0.31.55-0.41.23-0.65,1-0.89,1.82-1,1.76-1.11,1.71-0.67.92-0.22.13-0.1.31,0,0.72-0.5-.2L385.4,64l-0.25-.58,0-.61,0.61-1.51,0.06-.24-0.07-.14-0.33-.17-0.75.28-0.76.06-0.24-.1-0.1-.25V60.3l0.15-.49,0.45-.89V58.07l0.21-.49-0.2-.9,0.06-.43-0.32-.47-0.86-.62-2-.83,0.21-.93-0.08-.4-0.49-.6-2.11-.69-1.43-.32h-1.41l-1-.25-1.15-.08-0.73-.42-0.73-.42-0.73-.42-0.73-.42-1.3-.36-1.3-.36-1.3-.36-1.3-.36-1.3-.36-1.3-.36-1.3-.36-1.3-.36L360,45.84l-0.29-.63-0.29-.63L359.11,44l-0.6-.26-0.32-.14L358,43.22l-0.53.14-0.21-.54,0.06-.11,0.68-.14,2-.78,1.67-1L363,39.7l1.72-.69,2.06-.25,1.48-.4,0.89-.55,1.19-1.07,0.67-.31,0.84-.1,0.63-.41,0.43-.73,0.81-.83,1.18-.94,0.67-.37,0.17,0.18,0.07,0.33,0,0.49,0.3,0.39,0.63,0.3,0.29,0.4-0.06.5L377.05,36l0.4,0.34,0.11,0.75-0.19,1.16,0,0.75,0.14,0.34,0.14,0.19,0.23-.19,0.29-.41,0.11-.25,0.08-.25,1.73-1.17,0.34-.06,0.56,0.3L383.59,38l1,0.3,1.09,0.67,0.36,0.25,1.33,2.16L388,42.19l0.38,0.23,0.21,0.33,0.18,0.76L389,43.75l2,0.17,0.88-.13,0.54-.31,0.6,0.2,0.66,0.71,0.65,0.2,0.63-.31h0.6l0.56,0.33,0.26,0.24h0.17l1.1-1.07,1.33-.95,1.78-1,1-.46L402,41.43l1.64-.34,1.48,0,2,0.21,1.81-.24,1.67-.69,1.48-.39,1.29-.08,0.49,0.2-0.31.47-0.17.81,0,1.14-0.11.72-0.2.3,0,0.29,0.15,0.28,1.25,0.18,0.66,0.36,0.75,0,0.85-.33,0.65,0.12L417.77,45l0.66,0.11,0.63-.42,0.45-.4,0.39-.18Zm2.34,2.14v0.32l-0.32-.08-0.26-.22-0.21-.36-0.26-.9-0.41-.64,0.61-.73,0.36-.09,0.4,0.17L422.33,44l-0.29.68,0,0.71Zm0.13,1.74-0.14.09-0.52-.58L421.73,47l0.08-.3H422L422.34,47l0.19,0.32,0,0.36Zm6.41,3.47,0.1,0.33-0.25.49L428,52.4l-1.48,0-1-.19-0.44-.35-0.1-.18,0-.39,0.21,0,0.32,0.21,0.47-.09,0.63-.4,0.33-.3,0-.2-0.2-.37,0.17-.15,0.78,0.14,0.3,0.24,0.53,0.84ZM418,54.2l1.33,0.21,0.13-.11,0.38,0.4L419.87,55l-0.15.28-0.23.15-0.3,0-0.47-.29-0.78-.75Zm-2.13.42,0.74,0.28,1.33,0.92,1.27,0.53,1.19,0.15,0.87,0.32,0.55,0.5,0.4,0.55,0.24,0.61L423,58.81l0.89,0.08,0.71,0.25,0.52,0.44L428,60.72l1.19,0.6,0.66,0.58L430,62.27l-0.06.37L430,63l0.49,0.77,0.19,0.07,0.11,0.37,0,0.67L431,65.38l0.24,0.23-0.14.1-0.88-.39-0.5.12L429.5,66l0,0.47,0.17,0.45,1.12,1.35,0.3,1.22,0.06,1.49-0.14.57-0.12,1.27-0.09,2,0,0.67-0.38.65-1,.94V76.83l-0.24,0-0.26.14-0.36.81-0.31,1.47-0.38.79-0.44.12-0.26.21-0.09.3-0.47.2-0.87.1-0.6.44-0.44,1.25,0,0.6-0.21.75V84.6l0.23,0.53,0.71,0.53,1.17,0.53,0.69,0.08,0.49-.22,0.51-.87,0.49-.34,0.6-.14,0.22-.4,1-1.73V82.17L430.16,82l0.06-.11,0.46-.07,0.4-.23,0.34-.4,0.6-.3,1.46-.45,0.78-.52,0.5-.09,0.72,0.28,0.94,0.64,0.74,0.93,0.55,1.21,0.69,3.14,0.84,5.06,0.57,2.82,0.31,0.61,0.15,0.3-0.74,3.93-0.6,1.62-1,.94-1,.9-1.28,1.52-1.41.75-0.72.44-0.15.29-0.18-.09-0.39.83-0.34,1.14-0.13.88,0.12,0.49-0.3.31-0.53.57-0.1.21,0,0.34-0.11.17h-0.25l-0.2.17-0.47.61-0.82,1.58-0.13.29-0.1.09-3.45.13-3.45.13-3.45.13-3.45.13v-0.81H394.17l0.67-.39,1.1-.89,0.62-.81,0.6-1.06,0.57-1.31,1.17-2,0.57-1.19,0.55-1.51,0.42-1.59,0.28-1.67,0.13-1.73v-1.8l-0.28-1.81L400,93l-0.3-.94-0.11-.25-1-2.35-1.11-3.29,0-.28,1-2,0-.26L398.49,82l-0.22-.81-0.53-1.08,0-.28,1.08-1.38,0.65-1,0.58-1.28,0.39-1.49L400.65,73V71.84l-0.19-.57,0-.44,0.23-.31,1.16-.4,0.39-.67,0.09-1.19,0.24-.6H403l0.36-.24,0.33-.5,0.44-.14L404.66,67l0.76-.74,1-1.7,0.76-.95,0.53-.2,0.1,0.15-0.33.51-0.1.56,0.13,0.61-0.11.58-0.24.81,0.15,0.25-0.42,1.29,0,0.64,0.25,0.49,0.31-.17,0.35-.83,0.11-.44-0.14-.06,0.06-.35,0.25-.65,0.22-.31,0.19,0,0.06,0.35-0.09.67-0.56,1.6-0.11.49,0.12,0.13,0.67-1,0.56-1.59L409.53,66l0.08-.66-0.13-1.72,0-.71,0.17-.49,0.58-.55,1-.62,1-.33,1,0,0.68-.17,0.39-.3-0.13-.23L413.51,60l-0.5-.39-0.34-.6-0.11-.68,0.11-.77,0.42-.76,0.73-.74,0.23-.54-0.26-.35,0.31-.12,0.89,0.1,0.62-.1,0.35-.3Zm-8.19,2.81-0.35.08L407,57.33l0-.69,0.36-1.21,0.35-.55,0.49,0.22-0.1.14,0.1,1.29-0.18.57Zm-4.41,7.37-0.12.21-0.29,0-0.23-.2-0.22-.64,0.08-.14L403,64.09l0.2,0.28Z" transform="translate(-0.78 0.56)"/>
      <path id="US-MN" class="cls-2" d="M326.4,11.58l1.25-.19,1.07,0.06,1.08,0.09,0.57,0.13L332,12.36l1.08,0.56,1.56,1,0.86,0.46,0.41,1.08,0.49,1.39h0.68l0.52-.82,1.31-.14,1.73,0.57,1.52,1.62,2.19,1.44,1.33,0.72h1.36l1.73-.72,1.84-1.38L352,18l0.78,0.13,0.44,1.08,0.55,0.41,1.42-.12,3,0.21,2.37-.3L361.05,20l0.49,1,1,0.31,1.3-.31,2.05,0.21-0.29.15-0.3,0-0.4.23-0.5.5-1.14.71-1.78.93-2.05.85L355.25,26l-2.59,1.58-1.15.95-4.46,4.72-2.69,2.5L340,39.28l-0.41.44,0,0.41h-0.19l-0.72.85-0.31.54-0.71.15v8.65l-0.34.22-0.43.51-0.6.12-2.79,1.76-0.46.51-0.5,1.18-0.92,1.32-0.22.71,0,0.95,1.4,0.76,0.53,0.73L333.63,60l0,0.77-0.71,1.51-0.12.61,0.08,1.85-0.35.57,0.29,1.49,0,0.52-0.22,1.63-0.15.47,0.28,0.85,0,0.09,1.31,1.17,1.1,0.65,1,0.21,0.77,0.5,0.56,0.79,0.76,0.52,0.95,0.24,1,0.66,1.49,1.61,0.74,1.37,1.29,1,2.1,1L347.14,81l0.65,0.78,0.43,2L348.57,88H294.51V61.94l-0.79-1.09L292,60l-0.43-.53-0.81-1.32-0.32-.56-0.06-.44,0.39-.49,1.57-1.43,0.5-.66,0.24-.64,0.36-1.48-0.14-1.14,0.1-1.78-0.32-1.33L293,47.51l-0.2-.83-1.18-2.18-0.29-1.76-0.3-.87-0.1-2.25,0-.63,0.23-1.22-0.5-.83-0.08-.67-0.23-5.4-0.15-.77,0-2.51-0.9-2.66L289,24l-0.22-1.1,0-.53L288,20.55l-0.5-2,0-1.75-0.15-1.32,0.07-1-0.13-1.56,0.15-.88V10.6l-1-4.91h19l2.45,0,0-3.34,0-2.65L310.23,0l0.67,0.49,0.21,0.23L311,1.49l0.19,2.21,0.41,1.84,0.94,2.19h0l0.08,0.86L313,9.15l0.56,0.5,2.15,0.61L319.4,11l2.12,0.81,0.5,0.92L323,13l1.49-.18,1-.39Zm0,0h0Z" transform="translate(-0.78 0.56)"/>
      <path id="US-MO" class="cls-2" d="M346.49,131.37l-0.61,2.08v1.73l0.35,2.1,0.43,1.57,0.49,1,1.75,2,3,2.89,1.89,2.74,0.77,2.59,0.89,1,1-.51,1.29,0.23,1.39,0.43,0.73,0.51,0.17,0.18,0.08,0.19-0.06.19-0.2.5-1.72,4.28-0.6,2,0.09,0.73,0.69,1.06,1.3,1.38,1.14,0.89,1,0.42,1.52,1.11,2.07,1.79,1,1.35v0.89l0.21,0.92,0.43,0.94v0.88l-0.43.85,0.17,1.14,0.76,1.43,0.64,0.87,0.53,0.3h0.12l0-.13-0.07-.2,0-.18,0-.24,0.11-.1,0.09,0,0.5,0.35,0.73,0.78,0.33,1-0.07,1.3-0.29,1.24L369.74,181l-0.55.4-0.25-.07-0.53-.21-0.21.07-0.47.3-0.55,1.12,0,0-0.2.11-0.14-.11,0-.07-0.1-.33-0.23-.34h-0.18l-0.14,0-0.06.15-0.06.35,0,0.15,0.18,1-0.15.68-0.51.28-0.08.39,0.29,0.44v0.2l-0.11.17-0.34,0-0.28.1-0.21.35,0.42,0.67-0.09.81-0.57.95-0.08.38-1.9,0-1.71,0-1.71,0-1.7,0,0.81-1.37,0.53-.49,0.38-.52,0.69-.49,0.76-1,0.09-.49-0.08-.47-0.45-.65-0.45-1H313.52V148.76l0-.51-1.61-.93-0.73-.87-0.36-1.12L310,144.22l-1.09-1.1-0.18-1.19,0.73-1.26,0.62-.65,0.49,0,0.06-.54-0.39-1.08-0.55-.4-0.75.28-0.63,0-2.39-1.74-0.17-.12L305,135.21l-0.31-1.38-0.6-.9-0.89-.42-0.56-.9-0.24-1.41-0.57-1.42-0.26-.42h2.59l2.62,0,2.61,0,2.62,0,2.61,0h2.62l2.61,0,2.62,0,2.61,0h2.62l2.61,0,2.61,0,2.62,0,2.61,0h2.62l2.61,0,0.52,1,0.56,0.29,0.11,0.32,0.74,0.51,0.17,0.51Z" transform="translate(-0.78 0.56)"/>
      <path id="US-MS" class="cls-2" d="M380.43,201.73l0.92,0.83,0,0.3V203l-0.07.6L381,206l-0.25,2.32-0.25,2.32-0.25,2.31L380,215.21l-0.25,2.29-0.25,2.29-0.25,2.28L379,224.37l-0.25,2.28-0.25,2.27-0.25,2.27-0.25,2.26-0.25,2.26L377.43,238l-0.25,2.25,0.11,2.28,0.11,2.28,0.11,2.27,0.11,2.27,0.11,2.26,0.11,2.26,0.11,2.25,0.13,2.47-3,.19-1.32-.62-0.55-.12h-0.33l-1.54.56-1.76.43-0.41-.13-0.6,0-1.28,1.47-0.81.36-0.25-.1-0.29-.1-0.2-.17-0.39-.87-0.12-.63-0.46-1.37-0.53-.76-0.6-.51-0.26-.51v-0.34l-0.19-.61,0-.49,0.73-1.86,0.31-1.39H344.3l0-.33,0.43-.43,0.15-.54-0.35-1.3,0.13-.72,0.62-.13,0.31-.69V245.6l0.24-.85,0.49-.44,0.46-1,0.44-1.62,0.89-1.35,1.35-1.06,0.66-.92,0-.71,0.14-.33,0.28-.18,0.45-.49,0.6-.66,0.11-.45,0-.31,0-.34-0.47-.62-0.72-.52-0.46-.82,0-.62-0.15-.55-0.34-.47,0.08-.44,0.5-.41,0-.39-0.45-.36V229l0.44-.94,0-.65-0.5-.36-0.06-.61,0-.31L350,224l-0.11-.29-0.47-.66-0.06-.81,0.29-1-0.13-.76-0.4-.28-0.1-.31-0.12-.45,0.43-.41,0-.39L349,218.3l0.24-.5,0.87-.64,0.24-.36,0.25-.39,0.15-.92-0.12-.54-0.21-.36,0.1-.19,0.18-.17,1-.33,0.3-.23,0.07-.29-0.33-.71,0.32-.75,1-.79,0.51-.69,0.07-.61,0.46-.44,0.86-.28,0.53-1.12,0.21-2,0.25-.84,0.44-.12,0.23-.28,0.08-.57,0.54-.58,1-.6,0.4-.58-0.12-.31v-0.39H377.7Zm-4,58.7-0.13.13-0.92-.25-0.56-.23-0.1-.23,1.54,0.42Z" transform="translate(-0.78 0.56)"/>
      <path id="US-MT" class="cls-2" d="M216,52.38v3.45l0,3.44v3.42l0,3.41v0.18H142.91V73.6l-0.68-.39-0.45-.44-0.38-.51-0.71-1.41-0.4-.52L139.93,70l-0.36,0-0.44.18-0.34.33-0.11.58-0.33.68,0,0.57,0.14,0.29,0,0.17-0.22.12-1.65-.21-1.43.29-1-.22-1.89.11-1.63-.2-0.56.1-0.36.31-0.45.77-0.12.14L129,74l-2.66-.42h-0.69l-0.74.51-0.24.36-0.06.46-0.17.13-0.23,0-0.6-.31L123,74.24l-0.31-.37L122.6,73l-0.5-1L122,71.19l-0.32-.73-0.49-.74-0.49-.47-0.49-.17-0.89.1-0.2-.08-1-1-0.3-.43-0.09-.39,0.33-.94-0.1-.52-0.24-.64-0.34-.53-0.56-.46-0.51-1-0.94-1.41-0.25-1.09-0.36-.9-0.1-.92-0.35-.55,0-.71-0.06-.2-0.11-.09L113.6,57l-0.72-.71-0.36-.15h-0.15l-0.09.18-0.06.33-1.15,1.17-1,.55-0.47.54-0.43.26-0.23,0L108.65,59l-1-.79-0.84-.36-0.09-.18,0-.67,0.39-.78-0.4-1.42,0.12-.5,0.31-.34,0.9-.53,0.09-.25L108,51.8l-0.51-.51L107.32,51l0.15-1.1-0.22-.73,0.4-.62,0-1.06L108,46.4l0.34-1.64-0.08-.71,0.43-.76,0.14-.77,0-.54-0.07-.33-0.15-.12h-0.31l-1.42.3-0.46,0-0.4-.14-0.24-.26-0.07-.62-0.32-.41-0.17-.07-0.65.25-0.14,0-0.07-.11-0.26-.53-1-1-0.51-1.18-1-1-1-1.42L98.72,33l-0.45-.45-1.41-.77-1.11-1.12-1.14-.81-0.11-.13V29.61l0.07-.07,0.32-.22L95,28.91l-0.43-.84,0.21-.84-0.29-1.15-0.15-.39-0.81-1.07-0.53-1-0.83-.95L91,21.1V5.66H215.75l0,3,0,3v6l0,3v8.8l0,2.92v5.79l0,2.89v5.74l0,2.85v2.85Z" transform="translate(-0.78 0.56)"/>
      <path id="US-NC" class="cls-2" d="M507.16,181.94l-0.28,1,0.15,0.57,0.55,0.6,0.61,1.48,0.49,2-0.65-.81-0.69-.43-1.08-.33-1-.57,0.07,0.83-0.09.89-0.74-.28-0.51-.3,0.45,0.95-1-.29-0.65.06-0.42.84-0.56.51-0.84.17L499.8,188l-0.4-.93-0.17-1-0.07,1.22,0.22,1.28-0.08,1,1.19,0.18,1.11-.15,1.51,0,1-.18,0.6-.31,1.42,0.26,0.1,1.17-0.17,1.16L506,193h0.4l0.46-.4,0.23-2.22,1.3-.82,0.43,0.06,0.42,0.72,0.14,0.73,0.14,1-0.31,1.51-2,1.76-1.42,1.62-0.73.33-1-.19-1.19-.41-0.58-.08-0.44.13-0.28-.5-0.18-.92-0.46-.31-0.35,0-0.24,1-1.11.28-1.51-.4-1.59-.82,0.68,0.87,3.94,1.63,0.44,0.31,0.42,0.44L501,199l-0.43.78-0.07.62-0.15.39-1.57,1-0.85-.19-2.17-1.89,1,1.63,0.79,0.69,1.6,0.38,3-.61,1,0.66-0.81,1.18-0.81.83-1,.09-0.93.22-0.26.57-0.66,0-1,0-1.59.06-0.87-.13-1.22,1.16-0.46.15-0.64-.22-0.26-.93-0.29-.45v1.74l0.11,0.47,0.23,0.35-1.43.95-1.37,1.18-0.49.32-0.56.58-1.15,1.7-0.29,1.24L486.88,215l-0.06-.62,0.07-1-0.29-1.19-0.18,2.19-0.44,1-4.07-.07-1.64.51-1.49-1.51-1.4-1.42-1.4-1.42-1.4-1.42-1.4-1.43-1.4-1.43-1.4-1.43-1.4-1.43-1.47-.06-1.47,0-1.47-.06-1.47,0-1.47-.06-1.47,0-1.47-.06-1.47,0-0.06-1,0-.71-0.92-1.2-0.54-.71-1.16.61-0.07-.3,0-.53-0.1-.19-0.32-.13-1.64-.08-1.64-.07-1.64-.08-1.64-.07-1.64-.07-1.64-.08-1.64-.07-1.64-.07-0.38-.12-0.74.42-2,.63-1,.55-0.35,0-1.65.54-1.65.54h-0.19l-3.14,0-3.14,0-3.14,0-3.14,0,0.39-2.69,0.26-.62,0.3-.14h1.08l0.68-.31,0.61-1.62,1.38-1.28,0.62-.32,0.93-.25,2.19-.31,2.36-1.25,1.7-1.18,1.36-.33,0.42-.43,0.31-.56,0.19-.77,0.14-.17,0.78,0.06,0.6-.67,0.57-.39,0.57-.22h0.35l0.13,0.2,0.1,0.57,0.12,0.19,0.24,0,0.33-.13,0.44-.36,1.15-1.15,0.76-.44,1.17-.25,0.85,0.61,0.51-.21,1.49-2.35,0.6-.43,0.44-.17,0.77,0v-0.65l0.26-1,0-.67,0.47-1,0.18,0.2,3.76,0,3.76,0,3.76,0,3.76,0,3.76,0,3.76,0,3.76,0,3.76,0,3.76,0,3.76,0,3.76,0,3.76,0,3.76,0,3.76,0,3.76,0Zm0.81,0h0.33l1,4.12,2.07,4.48,0.25,0.77-0.49-.67-1.53-3-0.85-2.14Zm2.62,8.89-0.15.26-0.68-1.41,0.71,0.45,0.12,0.38v0.32Zm0.95,7.83-1.39.34-0.12-.11,1.6-.72,0.51-2.55,0.07-1.18L512,192.4V192l0.26,0.67,0.23,1.94L512.38,196l-0.46,2.14Zm-2.47.63-1.89.9-0.21-.06,1.24-.65Zm-7.49,6.89-0.25.14,0.95-1.57,1.87-2,0.51-.31-1.56,1.71Zm-0.44-.14-0.23,0L500.5,206l-0.56-.26-0.12-.2,0.54,0.07Z" transform="translate(-0.78 0.56)"/>
      <path id="US-ND" class="cls-2" d="M293.39,52.38H216V49.54l0-2.85V41l0-2.89V32.27l0-2.92v-8.8l0-3v-6l0-3,0-3h70.69l1,4.91v1.38l-0.15.88,0.14,1.56-0.07,1,0.15,1.32,0,1.75,0.5,2,0.74,1.82,0,0.53,0.22,1.09,0.43,0.9,0.92,2.67,0,2.51,0.15,0.77,0.23,5.4,0.08,0.67,0.5,0.83-0.23,1.22,0,0.64,0.1,2.24,0.29,0.87,0.29,1.78,1.18,2.18,0.2,0.83L293,48.13l0.32,1.33-0.1,1.78Z" transform="translate(-0.78 0.56)"/>
      <path id="US-NE" class="cls-2" d="M294.17,102l0.32,0.07,0.69,1.25,0.29,2.21,0.63,1.78,1,1.35,0.49,1v0.63l0.24,0.66,0.46,0.72,0.18,1.2-0.09,1.71,0.2,0.9,0.49,0.11,0.22,0.23-0.07.37,0.15,0.28,0.4,0.18,0.11,0.49-0.17.81,0.13,0.5,0.46,0.21,0.09,0.4-0.29.57,0,0.46,0.38,0.33,0.25,1.48,0.12,2.61,0,1.52-0.22.45,0.34,0.94,0.63,1,0.26,0.42,0.57,1.42,0.24,1.41,0.56,0.9,0.89,0.42,0.6,0.9,0.31,1.38,0.74,1.16,0.17,0.12H236.62V122.9H215.89V95.05h58l3.1,2.11,1.84,0.65,0.88-.62,1.9-.35,2.92-.09L286.31,97l0.77,0.66,1.5,0.75,2.24,0.83,1.33,0.9,0.44,1,0.78,0.61Z" transform="translate(-0.78 0.56)"/>
      <path id="US-NH" class="cls-2" d="M561.49,94.07L561,95.91l-0.3.89-1.21-.07-0.53.14-1.06.65-0.65.24-1.07,1.1-0.9.39-1.48,0-1.48-.06-1.48,0-1.48-.06-1.47,0L546.45,99l-1.48,0-1.48-.06-0.18-.5-0.57-.89-0.14-.39,0-.42L543,95.54l0.23-.35,0.24-.66,0.36-2.64,0.32-1.53,0.23-2.8,0.24-.83,0.25-.51,0.42-1.32L546,83.8l0.51-1.33,0.61-1.17,0.1-.68,0.45-1.49L548,76.47l0.31-.42,1.39-.36,0.44-.28,1.48-1.1,0.46-.46,0.3-.46,0.23-.75,0.17-.2,0-.41-0.52-1.75,0-.64,1.15-2-0.24-1.16,0.17-.29,1-2.82L555.33,62l1.3,0.44,0.69,0,0.52-.45,0.08,1.46L558,65.06l0.09,1.62,0.08,1.62,0.08,1.62,0.08,1.61,0.08,1.61,0.09,1.61,0.08,1.6,0.08,1.6,0.08,1.6,0.09,1.6,0.08,1.59L559,84.33,559,85.92l0.08,1.59,0,1,0.12,1,0.38,0.87,0.94,1.27,0.17,1.07Z" transform="translate(-0.78 0.56)"/>
      <path id="US-NJ" class="cls-2" d="M528.52,123l-0.18,1.07-1,2.16-0.43.5-0.51.44-0.39.19-0.35.34-0.41.54-0.39,1.08,0.23,1,2,0.36,0.53-.31,0.28,0.71,0.15,1-0.15,1.06-0.33,1.07-0.25,1.33-0.21,2-0.32,1.82,0-.55,0.2-2.21-0.32.23-0.22.51-0.61,2.85-0.84,1.51-0.77,1-0.79-.18,0.18,0.83-0.22.43-0.19.9-0.47.6-0.44-.06-0.64.41-0.25.31,0,0.61-0.43.53-1.54,2.75-1.33.81-0.32-.12,0.35-1.29,0.24-1.31-0.82-.57-0.77-.3-0.89,0-1-1-1.27-.74-1.78-2,0.06-.56,0-.94,0.54-1.49,0.52-1,0.72-.54,2.07-.55,0.52-.83,0.31-.69,0.53-.46,1.19-.84,1.81-1-2.5-3.41-0.6-.2-0.66-1.67-0.76-.45-0.19-.25,0-1.28,0.07-.74,0.11-.43,0.65-.36,0.38-.74V124.5l-0.5-1.19v-0.38l0.95-.73,1.24-1.42,0.74-1.56,0.3-.45,0.36-.32,0.82-.44,1,0.63,1,0.63,1,0.63,1,0.63,1,0.63,1,0.63,1,0.63Zm-2.32,17.8-1.21,2,0-.39,1.52-2.53Z" transform="translate(-0.78 0.56)"/>
      <path id="US-NM" class="cls-2" d="M226.48,182.59h-0.43v3.61l0,3.6V197l0,3.56v3.54l0,3.54v7l0,3.5v3.49l0,3.47V232l0,3.44v3.43h-37.4l1.06,2.21h0l1.26,0.63-0.08,0h-2.28l-2.28,0h-6.85l-2.28,0h-4.57V247h-8.65V176.15h62.77v6.44Z" transform="translate(-0.78 0.56)"/>
      <path id="US-NV" class="cls-2" d="M111.87,176.11v5.05l0,5.54-0.19.08L111,188l-0.66.58h-0.51l-0.51-.36-0.52-.72-0.77-.42-1-.1-0.9.11-0.79.33-0.49.47-0.26.92,0.09,0.38,0.47,0.85,0,1.32,0.07,1.07,0.29,0.58,0,0.68-0.17,1.08,0.13,0.88,0.6,1.56-0.2,4.49v0.09l-2.82-2.68-2.64-2.5-2.64-2.51-2.64-2.53-2.64-2.53-2.64-2.54L87.31,184l-2.64-2.56-1.9-1.78-1.91-1.78L79,176.12l-1.9-1.79-1.91-1.79-1.9-1.8-1.91-1.8-1.9-1.8L67,165l-2.44-2.14-2.43-2.15-2.43-2.15-2.44-2.16-2.43-2.16-2.44-2.16L50,149.91V109.09h61.86v67Z" transform="translate(-0.78 0.56)"/>
      <path id="US-NY" class="cls-2" d="M535.33,98.56L535,99.74l-0.33,1.18-0.33,1.18L534,103.28l-0.33,1.18-0.33,1.18L533,106.81,532.69,108l0.28,0.34-0.08,1.32L532.8,111l-0.08,1.32-0.08,1.31-0.08,1.31-0.09,1.31-0.08,1.31-0.08,1.31,0.31,0.53,0.31,0.53-0.39.25-0.61.39-0.64.41-0.84.53,0.43,0.68,0.54,0.86-0.43.35-1.11,1.2-0.75.64-0.62.21-0.38.54-0.41.35,0.4-1.19,0.43-1,0.36-2-0.11-1.59-0.44-.65-0.46-.44,0.54,1.57,0.09,1.92V123l-1-.62-1-.63-1-.63-1-.63-1-.63-1-.63-1-.63-1-.63-0.22-.52-0.38-.4-1.85-.69-0.47-.46-0.43-.63-0.3-.76-0.15-.81v-0.64l0.13-.72-0.43-.47v-0.44l-0.28-.3-1.21-.54-0.36-.76-0.81-.72H467.7v-3.83l0.62-.34,2-1.27,1-.93,1-.77,1.1-.62,0.87-.78,0.65-1L475.7,99l0.78-.47,0.42-.5,0.06-.52-0.14-.71-0.34-.88,0-.69,0.25-.51,0.06-.34-0.14-.18-1.64-.51L475,91.21l0-.07,0.09,0L478.85,90l2.4-.38,2.93-.1,3.5,0.53L489,90.57l0.86,0.62,1,0.17,1.12-.29,1.56-.1,2,0.1,1.07,0.14,0.14,0.2,0.13-.06,0.13-.31,0.53-.34,1.49-.52,0.2,0.11,0.31-.26,0.42-.63,0.76-.69,1.11-.76,1-.4,0.89,0,0.6-.19,0.3-.34,0.1-.31-0.11-.26,0.06-.29,0.06-.14,0-.12-0.11-.24-0.09-1.26-0.18-.58-0.24-.43-0.31-.28,0-.3,0.54-.36,0,0.34,0.14,0.1,0.25-.15,0.57-.75,0.07-.29,0.4-.3,0.29-.45-0.32-.07L505,81l-0.18-.13,0.4-.61-0.08-.34L505,79.75l-0.25-.06-0.86.53-0.26,0,0-.28-0.44-.62,1.19-1.11,4.21-3.1,0.43-.47,0.15-.42L509,73.91l-0.12-.09,0.07-.09,4.06-4,2.31-1.85,1.91-1,1.44-.5,1,0.07,0.56-.07h14.1l0.08,1-0.21,1.15,0.18,1.25-0.24,2.59,0.65,2-0.15,1.33,0,1.43-0.11.35-0.51.83-0.3.81-0.17.82v0.53L534,82.71l0.09,1v0.61l-0.39,1.92,0,0.54L533.8,87h0.14l0.44-.6,0.2-.09,0.25,0.15,0.62,0.9,0,1.62,0,1.17,0,1.3,0,2,0,1.42,0,1.3,0,1-0.14.73ZM505.66,76.81l-0.33.12-0.08-.17,0.06-.17,0.28-.2H506l-0.06.15Zm-1.57,4.14-0.15,0,0-.31,0.15-.2,0.31-.09v0.15Zm-27.71,13.8-0.32.49-0.31,0L475.54,95l-0.08-.31,0.06-.39,0.28-.17,0.75,0.14,0,0.15Zm66.66,28.36-0.74.88,0.66,0.09,0.57-.25,0.54-.53,1.27-.72,1.08-.31,0.34-.07,0.52,0.5,1-.4,1-.22-4.52,2.28-0.93.25-1.32.67-1.25.49-0.9.18L536,127.63l-0.35,0-0.39-.17-3.69.87-1.51.1-1.38.3,1-.69,0-.26-0.24-.21-0.54.06-0.56.72-0.89.24-0.18-.78,0.3-.61,0.41-.57,0.88-.9,1.27-.57,0.64-.5,0.44,0.44,0.1-.6,0.34-.34L532,124h0.89l0.49-.09,0.35-.2,0.36,0,1,0.26,1-.08,0.77-.38,0.81-.12,2.13-.08,2.12-.28,0.85-.49,1.78-1.36,1-.38-1.59,1.58Zm-17.43,6.32-0.5.06,0.5-1.3,0.92-.6,0.33,0.12v0.46l-0.12.4-0.61.61Z" transform="translate(-0.78 0.56)"/>
      <path id="US-OH" class="cls-2" d="M459.89,127.73l-1.22.6-0.23.55,0.37,0.69,0.2,0.9,0,1.1L458.35,134l-1.41,3.73-0.71,2.34,0,1-0.93,1.25-1.82,1.54-1.29.93-0.73.32-0.62,0-0.49-.38-0.55.25-0.62.88-0.56.45-0.53,0-0.45.57-0.37,1.1-0.35.64-0.33.17,0,0.56,0.28,0.95,0,0.34h-0.15l-0.14-.06-0.36.21-0.4.54h-0.15l-0.11-.09-0.11-.68-0.33-.5-0.53-.29-0.74.64L442.82,152l-0.41,1,0.17,0.71,0.08,1-0.24.42-0.51.15-0.41.56-0.28.95-0.72.61-1.15.25-1.2-.44-0.09,0L436.64,156l-0.89-1.15-0.38-1.09-1.24-.06-2.12,1-1.59.14-1.08-.68-0.81-.28-0.81.23-0.77.44-0.64-.26-0.79-.82-1.25-.57-1.71-.32-1.19-.89-0.65-1.44-0.71-1-0.74-.55-0.83-.15-0.88.22-0.68-.11-0.49-.46-0.62.06-0.57.44v-4.43l0-4.37,0-4.38,0-4.41,0-4.43,0-4.44,0-4.48,0-4.5,3.45-.13,3.46-.12,3.45-.13,3.46-.13,0.1-.09,0,0,0.14,0.24,0.94,0.15,0.64,0.29,0.5,0.43,1.81,0.85,0.55,0.52,0.54,0.29,0.55,0.06,0.37-.17,0.2-.38,0.25,0,0.31,0.33,1,0.36,0,0.11-2.81.63-0.58.3,0.71,0.21,0.71-.06,0.72-.3h0.83l0.72,0.14,0.23-.12,0.09-.06,1.24,0.82,0.45,0.13,0.47-.1,0.5-.31,1.08-.41,1.68-.5,1.61-.21,1.54,0.1,1-.14,0.89-.52,2-1.7,2.26-1.37,3.74-1.71,3.62-1.33v18.48Z" transform="translate(-0.78 0.56)"/>
      <path id="US-OK" class="cls-2" d="M313.52,182.59l0.23,1.8,0.23,1.78,0.23,1.79,0.23,1.78,0.23,1.78,0.23,1.78,0.23,1.76,0.24,1.78,0,1.37,0,1.38,0,1.38,0,1.37,0,1.37,0,1.37,0,1.37,0,1.37,0,1.36,0,1.37,0,1.36,0,1.36,0,1.36,0,1.35,0,1.36,0,1.35-2.34-.63-0.58-.4-1.07-.46-1-.93L308,215l-0.73-.28-0.23,0-0.39.57-1,.45h-0.56l-1-.17-0.2-.14-0.14-.35-0.4-.23-0.3.19-1.46.47-0.21.34h-0.83l-0.82-.24-2.05.76-0.71.6-0.74.2-0.37.58-0.23-.09L294.9,217l-0.78-.21-1.09-.71,0-.63-0.12-.08-0.19-.07-0.24.07L292,216l-0.28.13-0.26,0-1.06-.35-0.44-.64-0.21-.2-0.24,0L289,215l-0.25.69-0.21.2-0.43.12,0,0.34-0.39,1-0.21.2-0.28,0-0.28-.24-0.21-.34-0.09-.3,0.15-.76-0.1-.26-0.2-.08-0.52.36-0.45,0-0.58.36-0.35.11-0.33-.09-0.54-.58-0.93-.38-0.36-.69-0.15-.2-0.21-.06-0.2,0-0.33.22-1.07.92-0.49.29-0.42.06-0.41-.09-0.25-.23,0-.93-0.24-.28-1-.58-0.21-.54-0.09-.76-1.2.12-1.48-.08-0.66.66-0.35.12-0.41-.13-1.19-.9-1.27.19-0.72-.1-1.76-.67-1.38-.07-0.57-.12-0.31-.15-0.13-1-0.55-.87-0.18-.24-0.94-.61-0.15,0-0.1.13-0.21.69-0.29,0-1.08-.2-1,.21-0.55-.34-1.89-1.6-0.76-.42-0.62-.13V182.59H226.48v-6.44h87v6.44Z" transform="translate(-0.78 0.56)"/>
      <path id="US-OR" class="cls-2" d="M16.56,49.24l1-.37,0.82,0.29,1,0.67,1,2,1,3.39,0.22,1.14,0.78,0.68,0.93,0,3.72,0.5,0.55,0h0l0.67-.13,2.11-1.29,2.28-.42,2.7,0.09,1.65,0.37,0.61,0.64,1.44,0.07,3.42-.75,3.78-.53,2-.54,2.29-1.12,5.25-1.43,2.61-.17,1.32-.54,0.31-.28h22l0.29,0.65,1.08,1.28,1.53,1.09,1,1.15,0.45,1.19-0.75,2.72-2,4.24-1.06,2.69-0.18,1.17-1,2-1.76,2.79L79,74.51l0,1.33,0.6,0.78,1.15,0.21,0.79,0.44L82,77.94v0.61l-0.4.55-0.11.57,0.17,0.6-0.13,1.06-0.66,2.16v25.61H6.09l-1.31-1.7L4.2,104.86l-0.11-1.08,0.15-2.85-0.4-1.21-1-2L3.29,96l0.45-1.07,1.12-4.67,0.26-.38H5.6l0.82-.79L6,88.88l-0.57.38L6,87.4l0.57-1.6,0.36-.57L7.1,80l0.33-4L8,74.66,7.79,73.29,8,71.43,7.85,69.54,9,60.41,8.85,59.3,9.2,57.81,8.87,53.87,9,49.44l-0.29-.56-0.15-.62,0.28-.09,0.53,0.65h2.47l1.59-.6L14,48.41l0.66,0.82,0.84,0.15Z" transform="translate(-0.78 0.56)"/>
      <path id="US-PA" class="cls-2" d="M520.32,118l-0.82.44-0.36.32-0.3.45-0.74,1.57-1.24,1.41-0.95.73v0.38l0.5,1.19v0.39l-0.38.74-0.65.36-0.11.43-0.07.74,0,1.28,0.19,0.26,0.76,0.45,0.65,1.68,0.61,0.2,2.5,3.41-1.81,1-1.19.85-0.52.45-1,1.2-1.53.4-0.84.45-0.21.21-0.93-.37-1.29.06-0.44.17-0.33.33-0.78,1.08H459.89v-31l1.93-.72,0.86-.49,0.86-.46,0.45-.28,0.51-.24,3.25-1.81v3.83h45.8l0.81,0.72,0.36,0.75,1.21,0.54,0.28,0.31v0.44l0.43,0.49-0.13.72v0.64l0.15,0.81,0.3,0.77,0.43,0.62,0.47,0.46,1.86,0.69,0.38,0.41Z" transform="translate(-0.78 0.56)"/>
      <path id="US-RI" class="cls-2" d="M556.3,113.17l-0.39.35L555.5,113l-0.21-.58-0.3-.33-0.32-.12,0.28,1.28-0.65,1-0.18,2.48-0.82,1-2.56.66-0.76-.07,0.13-.79,0.26-.33,0.06-.86,0-.56v-6.83h1.85l1,0h1.42l0,0.63,0.06,1,0.43,0.15,0,0.78v0.52l0.38,0.32,0.39,0.33Zm-0.08,3-0.52.38-0.57-.07,0.3-.51,0.11-.75,0.29-.83,0.17-.25,0.34-.22Zm-1.29.09-0.29.25-0.11-.66,0.2-.76,0.21,0,0.1,0.41Z" transform="translate(-0.78 0.56)"/>
      <path id="US-SC" class="cls-2" d="M480.19,215.79l-0.13,0-2.75,1.85-0.82.82-2.26,3.13-0.57,2-0.46-.84,0.11-.63v-0.52l-0.57,1.1,0.54,1.61-0.49.62-1.49,1.15-0.82.19-0.93.32-0.29,1.14-1.25,1-0.73.46L466,229l0.41,1-0.49.76-0.85.57-1,.38-0.6,0-0.51.2-0.41.49-1,.45-1-.25-1.16-.15-0.64.26,1.08,0.45,0.57,0.64-0.11.87-0.3.33-0.68.45-0.3-.07-0.18-.41-0.22-.85-0.32.18-0.06.4-0.28.14-1-1.36,0.06,1,0.33,0.79,0.33,0.41,0.33,0.23,0.08,0.37-0.66.89-0.34.2-0.61.14-0.33.55,0.1,0.49-2.11-1-0.63-.88,0-1.14-0.4-1.29-1.24-2.16-0.89-.62L450.4,230l-0.58-2.56-0.92-1.63-1.26-.72-0.84-.85-0.43-1-0.44-.64-0.46-.3-0.25-.5,0-.72-0.72-.94-2.11-1.74-0.5-1.06-1-1.1L438.4,214h0L436,209.68h0l-0.3-.88-0.51-.36-0.82-.13-0.81-.43-1.17-1.1h0l-2-1.37,0.41-1.22,1.51-1.61,0.52-.85h0.25l1.65-.54,1.65-.53,0.35,0,1-.55,1.94-.63,0.75-.42,0.37,0.12,1.64,0.07,1.65,0.08,1.64,0.07,1.64,0.08,1.64,0.08,1.65,0.07,1.64,0.08,1.64,0.07,0.32,0.13,0.1,0.19,0,0.53,0.07,0.3,1.16-.61,0.54,0.69,0.92,1.2,0,0.71,0.06,1,1.47,0,1.47,0.06,1.47,0,1.47,0.06,1.47,0,1.47,0.06,1.47,0,1.47,0.06,1.4,1.43,1.4,1.43,1.4,1.43,1.4,1.42,1.41,1.43,1.4,1.42,1.4,1.42Z" transform="translate(-0.78 0.56)"/>
      <path id="US-SD" class="cls-2" d="M293.39,52.38L293,53.86l-0.24.65-0.51.65-1.57,1.43-0.39.5,0.06,0.44,0.32,0.56,0.81,1.33L291.94,60l1.72,0.88,0.79,1.09v26L293,88l0.18,0.89,0.41,0.87,0.08,0.51-0.09.41-0.28.36,0.07,0.57,0.08,0.17,0.68,0.36,0.22,0.51,0.08,0.57v0.43l-0.41.79-0.12,1-0.51,1.56-0.56.95-0.11.49,0.06,0.39,0.86,1,0.06,0.4,0.29,0.52,0.25,1.16-0.79-.2-0.78-.61-0.44-1-1.33-.9-2.24-.83-1.5-.75L286.31,97l-1.84-.29-2.92.09-1.9.35-0.88.62-1.84-.65-3.1-2.11h-58V66.28h0.33V66.1l0-3.41V59.27l0-3.44V52.38h77.39Z" transform="translate(-0.78 0.56)"/>
      <path id="US-TN" class="cls-2" d="M427.2,181.26h2.36l5,0,3.57,0H445l0.49-.26,1.09,0,1.47,0.06-0.47,1,0,0.66-0.26,1v0.65l-0.76,0-0.45.17-0.58.43L444,187.44l-0.52.21-0.85-.61-1.17.25-0.76.44-1.14,1.15-0.44.36-0.34.13h-0.24l-0.12-.19-0.1-.57-0.13-.2h-0.35l-0.57.22-0.57.39-0.6.66-0.78-.06-0.14.17-0.19.77-0.31.56-0.42.43-1.36.33-1.7,1.18-2.35,1.25-2.21.31-0.92.25-0.62.32-1.38,1.28-0.61,1.62-0.69.31h-1.07l-0.3.14-0.28.62-0.39,2.68-3.37,0-3.37,0-3.36,0-3.37,0-1.67,0-1.67,0H401.9l-1.67,0-1.67,0-1.67,0h-1.67l-1.67,0-1.67,0h-1.67l-1.67,0-1.67,0-1.67,0h-1.67l-1.67,0-1.67,0h-0.13l0.12,0.15,0.19,0.17h-22v0l0.39-.53,1.18-.86,0.52-1.14-0.15-1.4,0.43-1.26,1-1.14,0.42-1.12L362,193.1l0.52-.9,1.19-.71,0.17-.28,0-.22,0-.24v-0.1l0.06-.22,0.26-.12,0.35-.11,0.15-.18v-0.29l-0.21-.51,0-.23,0.08-.38,0.57-.95,0.09-.81-0.42-.67,0.21-.35,0.28-.1,0.34,0,0.11-.17v-0.2l-0.29-.44,0.08-.39,0.51-.28,0.15-.68-0.18-1,0.73,0,0,0.07,0.14,0.11,0.2-.11,0,0h14.44l0,0v-1.15l-0.42-1.32h0.06l1.4,0.14,0.92,0.09,0.3,0.4,3.46-.07,3.45-.07,3.46-.07,3.45-.07,3.61,0.12,3.6,0.13,3.61,0.12,3.61,0.13,3.61,0.12,3.61,0.12,3.6,0.13,3.61,0.12,0.09,0,0.08,0,0.08,0,0.09,0,0.08,0,0.09,0,0.08,0Z" transform="translate(-0.78 0.56)"/>
      <path id="US-TX" class="cls-2" d="M314.9,218.62l0.54,0.61,0.43,0.18,0.13,0.24,0.21,0.07,0.26-.06,0.4-.28,0.58,0.08,0.49-.1,1,0.14,0.53,0.29v1.68l0,1.68v1.68l0,1.68V238.9l1.43,1.49,0.62,1,0.2,0.52,0.07,1.78,0.14,0.43,0.72,0.66,0,0.44,0.75,1.28,0,0.61,0.72,1.37,0.41,0.35,0.07,0.93,0.22,0.69-0.33.5,0.14,0.69-0.2.64-0.11.85-0.47,1.31-0.42.64-0.57,1.24,0.06,1-0.33,1.11,0,0.43,0.31,0.74,0.11,2-0.17.43-0.69,1.19-0.5,0-1.09,2,0.62,1.1,0,0.4-2.17.22L314,269.16l-1.92,1.19,0.1-.4,2.33-1.54-0.82-.23-1.32.39-0.47-.14,0.56-1.28L312.28,266l-0.94,0-0.6.9-0.42,0-0.54-.39-0.42.12,0.31,2,0.6,0.84,0.5,1.07-1.35,1.31-1.26,1.08L308,274l-1.26,1.37-1.18.77-2.78,1.82-0.79.39-1.26.84-1.73.63-1.67,1-0.56.15,1.06-.85,1.26-.84-1.08.11-1.67-.39-1,0v0.31l-0.77.43-0.81-.63-0.35-.43-0.17-.36-0.34-.09-0.33.18,1.2,2.59,0.51,0.11,0.56,0.25-0.71.61-0.76.45-1.19.31-1-.94L291,282.92l-0.13,1.18-0.34.3-0.54.43-0.3-.32-0.14-.45-0.34.41-0.51.31-0.84.07-0.63.17v0.49l0.14,0.49,1.11-.39-0.4,1.26-1,1.25-0.83.3-1.27-.18-0.31.12-0.28.25,1.48,1.94-0.95,2.92-0.61,1.06-0.42.13-0.45,0-1.64-.94-0.89-.73,0.79,2,2.15,0.57,0.11,0.75V297l-0.42.75-0.4,1,0.3,0.69,0.34,1.71,0.29,0.78,0.32,2.38,0.34,1,2,3.78,0.66,0,0.11,0.41-0.07.78-1.41.23-0.58.35-0.11.3-0.09.17H285l-0.67-.22-1.52-1.07-2.23-.66-2.92-.25-2-.54-1.07-.82-1.11-.49-1.17-.15-1-.44-0.76-.74-1.12-.47-1.48-.21-1-.55-0.66-1.36v0l-0.6-2.26L265,299.66l-1.47-1.76-0.13-.23h0v-0.29l0.19-1-0.15-.74-0.46-.61-0.11-.64,0.25-.67,0-.81-0.22-.94-0.94-1-1.65-1.09-1.4-1.6-1.16-2.11-1.15-1.47-1.14-.82-0.77-1-0.42-1.18-0.12-.68,0.17-.19-0.69-1.31-1.57-2.44-0.89-1.79-0.23-1.12-1-1.35-1.76-1.57-1-1-0.23-.71h0l-2.75-2.06-0.79-1.29-0.62-.41-0.72,0-0.36-.12,0-.29h-0.23l-0.44.26-1.46.06-2.48-.15-1.79-.35-1.1-.54-0.77.08-0.44.69-0.94.45-1.44.2-1.24,1.29-1,2.37-0.45,1.52,0.13,0.68-0.28.5-0.67.31-0.68.68-0.69,1.07-0.82.52L224,275l-1.72-.82-2.5-1.61-2-1-1.42-.38-1.26-.75L214,269.33l-1-.74-0.92-.38L211,267l-1.22-2.11-0.62-1.62v-1.72l-1.6-3.75-0.85-1.63-0.63-.75-1.24-.89-1.84-1-2.47-2.08-3.1-3.14-2.19-1.9-1.29-.64-1.11-1.14-0.95-1.63-0.93-1-0.1,0-1.26-.62h0L188.56,239H226V225.25l0-3.47V211.29l0-3.52v-25h31.52V207.1l0.61,0.13,0.76,0.42,1.89,1.6,0.55,0.34,1-.2,1.08,0.2,0.29,0,0.21-.68,0.1-.14,0.15,0,0.94,0.62,0.18,0.24,0.55,0.87,0.14,1,0.3,0.15,0.57,0.12,1.39,0.07,1.76,0.67,0.72,0.1,1.27-.19,1.19,0.9,0.42,0.13,0.34-.12,0.67-.66,1.48,0.08,1.2-.12,0.1,0.76,0.21,0.55,1,0.58,0.24,0.29,0.06,0.93,0.25,0.23,0.4,0.09,0.42-.06,0.49-.29,1.07-.9,0.33-.22,0.2,0,0.2,0.06,0.17,0.2,0.36,0.69,0.93,0.38,0.53,0.58,0.33,0.09,0.36-.11,0.57-.36,0.45,0,0.52-.36,0.21,0.08,0.09,0.25-0.15.77,0.09,0.3,0.21,0.34,0.29,0.24,0.28,0,0.21-.2,0.39-1,0-.35,0.44-.12,0.2-.19,0.25-.71,0.45-.19,0.24,0,0.22,0.2,0.44,0.64,1,0.36,0.28,0,0.28-.13,0.47-.53,0.24-.07,0.2,0.08,0.11,0.08,0,0.62,1.08,0.71,0.79,0.21,0.77,0.72,0.22,0.08,0.38-.57,0.74-.21,0.71-.6,2.05-.76,0.82,0.24h0.83l0.22-.33,1.46-.49,0.3-.19,0.41,0.24,0.14,0.35,0.19,0.14,1,0.18,0.55,0,1-.45,0.4-.57,0.23,0,0.73,0.28,1.91,1.16,1,0.94,1.08,0.45,0.58,0.4Zm-5.77,54.53-0.52.11,2.26-1.82,0.47-.61,0.61,0-1,1Zm-17.9,11.69-0.39,0,0.47-.63,0.77-.32,1.69-1.21,0.68-.09,0.36-.42,0.15-.07-0.1.52-1.36.73Zm-2.6,2.93-0.22,0,0.51-1,0.09-.39,0.83-1.21,0.44-.18,0.19,0.52-0.85.85Zm-3.52,7-0.32.67,0.09-1,0.85-2.27,1.71-3,0.72-.5-2,3.28ZM287,308l-0.14.53L286,306l-1.4-5.67-0.06-3.24,0.22-1.11,0.36,4.58,1.54,5.79Z" transform="translate(-0.78 0.56)"/>
      <path id="US-UT" class="cls-2" d="M142.91,109.08V122.9h20.8v53.25H111.87v-67h31.06Z" transform="translate(-0.78 0.56)"/>
      <path id="US-VA" class="cls-2" d="M488.89,145.29l0.61,0.5,1.4,0.58,0.57,0.6-0.25.61,0,0.44,0.26,0.4,1.86,0.79,1.15,1.12,0.71,0.34,0.21,0.1,0.51,0.28,0.23,0.34L496,152.9l-0.49.75-0.76.57-1,1-0.24.94-0.31,1.75,0.42,0.6,0.43,0.15,1.27-.4,0.66,0.18,1.46,2.11,2.71,0.83,1,0.52,0.81,1.09,1.21,0.63,0.94,0.92,0,0.6-0.33.71-0.13.95-0.4.6-1,.07-0.57-.15L498.57,164l-0.38-.31L497,161.9l-1.36-.94-0.42,0,1.93,1.74,0.79,1.21,1.39,1.71,1,0.72,0.73,1.12,0.68,0.53,1.85,0.75-0.64.54,1,0.46,0.14,0.84-0.1,1-1.42-.38,0,0.71,0.13,0.42-0.63.34-0.87-.46L499,169.65l0,0.34,0.19,0.4,1.32,1.64,1.18,1,1,0.44,0.77,0.83,0.28,0.5,0.18,0.75-0.57.52-0.65.29-0.63-.51-0.46-.54-1-.92-0.3-1-0.75.06-3.15-1.3-2.54-.15,0.25,0.26,0.32,0.18,2,0.32,0.79,0.6,1.65,0.53,1,0.14,0.4,1.63,1.35,1.11,0.18,0.83,0.92,0.09,1.61-.81,1,0.29,1.5,0.23,0.34,0.65,0.25,1.25,0.53,1.4,0.34,1.37h-1.14l-2.58,0-3.75,0-3.76,0-3.75,0-3.75,0-3.76,0-3.75,0-3.76,0-3.75,0-3.76,0-3.75,0-3.75,0-3.76,0-3.75,0-3.76,0-3.75,0-0.18-.2-1.48-.06-1.08,0-0.49.26h-6.84l-3.57,0-5,0h-2.35l1-.62,1.56-.36,2.77-1,1.1-1.07,1.56-.78,0.65-.94,1-.89,0.39-1,0.14-.15,1.72-.92,1.8-1.15,3.93-3.15,0.08,0.42-0.14.45,0.33,0.53,0.28,0.83,0.39,0.51,0.49,0.41,0.81,0.36,0.95,0.64,0.75,0.18,0.25,0,0.83-.62,0.68-.33,0.72-.67,1.28,0.92h0.51l1.26-.4,1.18-.11,0.3-.12,0.44-.38V171.1l0.1-.2,0.2-.09,0.23,0,0.53,0.28h0.52l2.21-.88,0.17,0.07,0.28,0.41,1-.52,0.57-.49,0.25-.73,0.49-.72-0.1-.32-0.31-.42,0.41-1,0.6-1,2.25-2.91,0.72-1.76,0.94-1.14,0.31-.9,0.71-.89,0.49-1.85,0.3-.38,0.44-.07,0.44,0.23,0.32,0.34,0.21,0.55,1.12,0.49,0.95,0.07,0.66-.35,0.39-.65,0.53-1.22,0.5-.73,0.32-.92,0.33-.63,0.51-.4,1.28,0,0.66-.56,0.51-.64,0.31-.21,0.36,0,1.16-1,1.52-2.15,0.33-1.36,0.4-1,0.15-1,0.3-.55,1.35,1.09,0.77,0.63,1.76,1.43,1.17,0.95,0.46-1.08Zm25.69,17.34,0.28,0h0l-1.11,2-0.47.21Zm-4.22,1.1,0.41-.6,1.57-.21,1-.13L511,167.94l0.1,0.95-0.46.31-0.69.24-0.71.56-0.46.62-0.43,1.68-0.84,1.87-0.52-.78-0.13-.67,0.23-1.75,0.9-2.88,1-1.8,0.76-.85Z" transform="translate(-0.78 0.56)"/>
      <path id="US-VT" class="cls-2" d="M543.49,98.87l-1,0-1,0-1,0-1,0-1,0-1,0-1,0-1,0-0.28-.85,0.13-.73,0-1,0-1.29,0-1.43,0-2,0-1.3,0-1.18,0-1.61-0.62-.9-0.25-.15-0.19.1-0.44.6h-0.14l-0.11-.15,0-.54,0.4-1.92V83.62l-0.08-1-0.44-2.34V79.72l0.18-.81,0.3-.82,0.51-.82,0.11-.35,0-1.43,0.15-1.33-0.65-2,0.24-2.59-0.18-1.24,0.21-1.15-0.07-1h19l-0.17.29,0.24,1.16-1.15,2,0,0.64L552.82,72l0,0.41-0.17.2-0.23.75-0.3.46-0.46.46-1.48,1.1-0.44.28-1.39.36-0.31.42-0.32,2.66-0.45,1.49-0.1.68-0.61,1.17L546,83.8l-0.77,1.09-0.42,1.32-0.25.51-0.24.83-0.23,2.8-0.32,1.53-0.36,2.64-0.24.66-0.23.35-0.32,1.14,0,0.42,0.14,0.39,0.57,0.89Z" transform="translate(-0.78 0.56)"/>
      <path id="US-WA" class="cls-2" d="M82.21,51.5h-22l-0.31.28-1.32.54-2.61.17-5.24,1.43L48.38,55l-2,.55-3.78.53-3.42.75L37.7,56.8l-0.61-.64-1.65-.36-2.7-.09-2.28.43-2.11,1.29-0.67.13h0l-0.54,0-3.72-.51-0.93,0-0.79-.68-0.21-1.12-1-3.4-1-2-1-.67-0.82-.28-1,.37L16.25,49,15.75,49l-1.1-.75L14,47.48l-1.93.06-0.4-.49-2.15.49L8.88,47l-1.17.32L8,46,7.94,44.2,8,42.48,8.3,43.73,9,45.07l0.35-1.51,0.24-1.91L8.9,40.91l-1.18-.54L7.3,38.58l2.8-1.52-1.49-.32L8,36.06,7.31,36l-0.06.53L7,37.21l-0.25-.92L6.71,35.21l-0.3-1.85-1.15-3L4.57,26.47,3.7,24.54,2,22.69,1.58,21.61l-0.4-2.75L1.4,16.78,1.09,15.31,1.9,15.4,4,16.56l2.64,0.9,0.79,0.66,1.28,0.49,7.07,0.76,0.46-.07,0.92-.47,0.39,0.06,1,1.08,0.52,0.13L19.79,20l0.5-.21,0.85-.74,0.11,0.28v0.68l0.31,1,0.63,1.26,0.24,0.78-1.27,2.19-0.24,0,0-.74-0.17-.14-2.38,3.71-0.84,1.75-0.09.79,0,0.46,0.33,0.11,0.76-.18,1.12-.73,0.06-.15-1,.25-0.51,0,0.07-.83,0.12-.4L19,28l0.73-.74,1-.78,0.6-.65,0.41-.95,1.14-1.12,0.21-.32,0-.94,0.08-.18,0.55,0.12,0.23,1.6-0.13.72-1,.87L22.7,26l0.18,1.19-0.15.11-0.38-.14-0.11.08,0.93,1.29,0.3,1,0,0.89-0.25,1.71L23,32.37l-0.46-.1-0.62-.53-0.13.18-0.49,1.32-0.17-.11-0.31-1.57-0.17-.12-0.95.72-0.38.68L19,33.94l-0.42.52,1.18,0.11,1.06-.22,0.85,0.52H22l0.78-.51L23,34l0.64-1.65,0.32-.3h0.49l0.46-.25,0.69-.9,0-.36-0.25-2,0.08-1.16L25.3,27,25,26.6l0-.37,0.24-.61,0-.55-0.21-.49L25.18,24l0.65-1.2L26,22.28l0.79-1.2-0.2-.49-0.62-.66-0.36-.52-0.38-.82-0.28-.28-0.09.12,0.4,1.33-0.09.09-1-.72-0.24-.45-0.12-.62,0.09-.46,0.55-.45L25,17,25,16.61l-0.83-1.25-0.55-.57-0.42-.28-0.57-.07-0.25-.21-0.07-.3,0.12-.39,0.31-.12,0.88,0.15,0.47-.28,0-.5-0.14-.28,0-1.79L23.59,9.3l-0.18-.24L23.23,9l-0.2.2-0.55.06-0.34-.47-0.38-.93L21.08,5.68H80.71l0,2.51v37l-0.08.14-0.07.35,0.3,1,0.71,1.46,0.22,1-0.26.58,0.19,1ZM21.11,10.7L21.26,11l-0.42.33-0.3.06-0.47-.53-0.21-.07L20,11.65,20,11.93l-1-.51L18.82,11l0.28-.42,0.61-.44,0.21-.06Zm-2.4,2.69L19,13.91l-1.11-.33-0.47-.3L17.25,13,17.09,12l0.08-.31,0.5-.11L18.6,12.8Zm2,1.08-0.17.15L20,14.42l-0.33-.34-0.11-.43,0.21-.83L20,12.61l0.18,0,0.08,0.73,0.5,0.77Zm2.58,4.28,0.51,2L24,19.93l1.41,1.47v0.72l-0.18.24-0.3.09-0.28-.21-0.25-.51-0.32-.26-0.67-.18-0.35-.57L23,20.32l0-1.14-0.17-.35-0.36-.08L22,18.49l-0.53-.79-0.08-.21,0.25-.65,0.57-1.09,0.42-.52L23,15.28l0.32,0.33,0.39,0.6-0.07.42L22,17.45l-0.06.2,0.75,0.23L23,18.09Zm0.78,8.67-0.06.3-0.57-.35L23.25,27l0-.73,0.14-.47,0.11-.1L23.87,26,24,26.08Zm1.07,3.06,0,0.35-0.4.28L24.49,31V30.63l-0.11-.07-0.43.5,0-1,0.21-1,0.19,0,0.28,0.67Zm-4.76,2.91-0.1.3H20.13l-0.32-.61,0-.43L20,32.33l0.38,0.89Z" transform="translate(-0.78 0.56)"/>
      <path id="US-WI" class="cls-2" d="M357,36.1l-0.34.24-0.13-.11,0.08-.46,0.18-.28,0.26-.08,0.13,0.11v0.3Zm-2.92,1.5-0.15.11-0.4-.25-0.06-.21,0.11-.21,0.19,0,0.26,0.31Zm3.12,5.05-0.06.12,0.21,0.55,0.53-.14,0.23,0.33,0.32,0.14,0.6,0.26,0.29,0.63,0.29,0.63,0.29,0.63,0.29,0.63,1.3,0.36,1.3,0.36,1.3,0.36,1.3,0.36,1.3,0.36,1.3,0.36,1.3,0.36,1.3,0.36,0.73,0.42,0.73,0.42,0.73,0.42L373.54,51l1.15,0.08,1,0.25h1.42l1.43,0.32,2.11,0.69,0.5,0.6,0.09,0.4L381,54.3l2,0.83,0.86,0.62,0.32,0.47-0.06.43,0.2,0.9-0.21.49v0.85l-0.45.89-0.15.49v0.41l0.1,0.26,0.24,0.1,0.76-.06,0.75-.28,0.33,0.17L385.79,61l-0.06.24-0.61,1.51,0,0.61L385.4,64l0.42,0.57,0.5,0.2,0,0.39-0.2.74-0.58.58-1.52.74-0.24.5,0,0.41-1,1.7-0.49,1-0.32,1.08L382,72.6l0.52,0.28,0.42-.11,0.32-.5,0.49-.44,0.66-.4,0.49-.58,0.67-1.43,0.75-.83,0.4,0,0.11,0,0.78-.37,0.63,0.12,0.38,0.56L389,69.26l0.09,0.36-0.2.81-0.35.85-0.52.89-0.47,1.33-0.42,1.79-0.09,1.35,0.24,0.9-0.23.81-0.71.72-0.57.95-0.43,1.19-0.24,1-0.06.81,0.07,0.61,0.26,0.82,0,0.41-0.77,1.79-0.28.87,0,0.68-0.19.67-0.58,1.37-0.19.76,0,0.69,0.13,1.14-0.08.39,0,0.29,0.14,0.2V94l-0.15.52L383.42,95l0.26,0.29,0.18,0.55,0.08,0.82,0.2,0.67,0.33,0.54,0.06,0.78-0.21,1-0.11,1.93v0.64h-1.32l-4.68,0-4.68,0-4.68,0-4.68,0-4.68,0-4.78,0-0.07-.11-0.32-1.26-1-.94-1.78-.62-1.14-1-0.5-1.31-0.32-1.48-0.13-1.64,0.14-1.38L350,91.18l-0.11-.75-0.63-.4-0.42-.52-0.2-.64L348.57,88l-0.34-4.21-0.43-2L347.14,81l-1.37-.92-2.1-1-1.29-1-0.74-1.37-1.48-1.6-1-.66-0.95-.24-0.75-.52-0.56-.79-0.77-.5-1-.21-1.1-.65-1.31-1.17,0-.09-0.28-.85,0.15-.47,0.22-1.63,0-.52-0.29-1.49,0.35-.57-0.08-1.84,0.12-.61,0.71-1.51,0-.77-0.25-.89-0.52-.73-1.4-.76,0-.95,0.23-.71,0.92-1.32,0.51-1.18,0.46-.51,2.8-1.76,0.6-.12,0.43-.5,0.34-.22V41.72l0.71-.15,0.31-.54,0.72-.85h0.19L340,40.58l0.89,0.56,0.69,0.07,0.88-.11,3.5-1,1.48-.67,1.44-1.14,0.15,0,0.61,0.21,0.19,0.1,1.89-1.3,0.62-.17,0.49,0,0.61,0.51L353.57,38l-0.2.6-0.54.88-0.26.75v0.61l-0.23.65-0.6.88L352,42.59l1.59-.64,0.23-.24,0-.14-0.1-.18,0.19-.08,1.25,0.87L356,42.66l0.69,0.23Zm-1.44-4.93-0.34.09-0.75-.13V37.46l0.77-.31,0.34-.09,0.08,0.13Zm-1.71,2.05-0.6.21-0.24,0,0.1-.29,0.31-.34,1.38-.85,0.24,0,0.08,0.21-0.67.42-0.25.22,0,0.23Zm40,21.35-0.31.14-0.57-.06-0.21-.33,0.3-.85,0.12,0.15h0.5L394,60.29l0.06,0.21Zm-1.35,1.63-0.19.19-0.32-.12-0.12.28,0.07,0.67-0.11.31L391.73,64v0.12l0.25,0.3,0,0.33-0.2.35-0.19.17-0.19,0-0.29.41-0.39.84-0.13.49,0.12,0.13-0.09.28-1,1.27-0.36.12-0.4-.18-0.29-.37-0.17-.56,0-.44,0.07-.31,0.84-1.12,0.38-.74,0.21-.83,0.39-.53,0.57-.23,0.46-.52,0.35-.81,0.41-.35,0.46,0.11,0.2,0.31Z" transform="translate(-0.78 0.56)"/>
      <path id="US-WV" class="cls-2" d="M470.71,140.24l0,1.72,0,1.72,0,1.71,0,1.71,1.33-1,0.68-.35,2.26-2.19h0.3l0.78,0.31,1.63-1.57,0.19-.56,0.19-.19,0.21,0,0.12,0.14-0.08.33,0.12,0.15,0.67,0.38,0.93,0.21,0.13,0h0.83l0.36-.31,0.19-.61,0.37-.35,0.84-.15,1.5-.62,0.87,0.1,0.73,0.63,0.74,0.3,0.75,0,0.3,0.14-0.18.33,0.2,0.36,0.57,0.42,0.19,0.39-0.19.35,0.07,0.26,0.3,0.18,0.19,0.39,0.06,0.61,0.13,0.11-0.67,1.6L487.75,148l-1.17-.95-1.76-1.43L484,145l-1.35-1.09-0.3.55-0.15,1-0.39,1-0.33,1.36L480,149.92l-1.16,1-0.35,0-0.31.21-0.51.64-0.65.55-1.28,0-0.52.4-0.33.64-0.32.92-0.5.72-0.53,1.22-0.39.65-0.66.35-0.95-.06-1.14-.5-0.21-.55-0.32-.34-0.43-.23-0.44.06-0.3.37-0.49,1.85-0.71.89-0.31.92-0.94,1.14-0.72,1.76-2.24,2.91-0.61,1-0.41,1,0.31,0.42,0.1,0.32-0.47.72-0.25.73-0.57.49-1,.52-0.29-.41-0.17-.07-2.21.89h-0.52l-0.53-.28h-0.23l-0.2.1-0.1.19v0.77l-0.44.38-0.29.12-1.19.11-1.25.4h-0.51l-1.28-.92-0.72.67-0.69.32-0.82.62-0.25,0-0.75-.18-0.95-.64-0.79-.36-0.49-.4-0.39-.52-0.28-.83-0.33-.52,0.14-.45-0.08-.42-1.43-.41-1.84-1.52-1.18-1.84-0.38-.86-0.43-.58-0.11-.58-1.1-1.53-0.3-.65,0-.43,0.35-.79,0.08-.39-0.12-2-0.24-.36,1.2,0.44,1.15-.25,0.72-.61,0.28-.95,0.41-.56,0.51-.15,0.24-.42-0.08-1-0.17-.71,0.41-1,0.95-1.57,0.74-.64,0.53,0.29,0.33,0.5,0.11,0.68,0.11,0.09h0.15l0.4-.54,0.36-.21,0.14,0.06h0.15l0-.34-0.28-.95,0-.56,0.33-.17,0.35-.64,0.37-1.1,0.45-.57,0.53,0,0.56-.45,0.62-.88,0.55-.25,0.49,0.38,0.62,0,0.73-.32,1.29-.93,1.82-1.54,0.93-1.25,0-1,0.71-2.34,1.41-3.73,0.68-2.43,0-1.1-0.2-.9-0.37-.69,0.23-.55,1.22-.6v12.52h10.82Z" transform="translate(-0.78 0.56)"/>
      <path id="US-WY" class="cls-2" d="M215.81,95.05V122.9h-73V66.28h72.81V95.05Z" transform="translate(-0.78 0.56)"/>
    </g>
  </g>
  

</svg>
